<svg xmlns="http://www.w3.org/2000/svg" xmlns:xlink="http://www.w3.org/1999/xlink" width="45.548" height="45.548" viewBox="0 0 45.548 45.548">
  <defs>
    <clipPath id="clip-path">
      <path id="Path_1818" data-name="Path 1818" d="M1.546,0,0,1.546,6.183,7.729,0,13.912l1.546,1.546L7.729,9.275,9.275,7.729,7.729,6.183Z" fill="#23617b"/>
    </clipPath>
    <clipPath id="clip-path-2">
      <rect id="Rectangle_198" data-name="Rectangle 198" width="20.978" height="27.603" fill="#23617b"/>
    </clipPath>
    <clipPath id="clip-path-3">
      <path id="Path_1817" data-name="Path 1817" d="M0,16.562H9.937V0H0Z" fill="#23617b"/>
    </clipPath>
  </defs>
  <g id="Group_1" data-name="Group 1" transform="translate(-722.433 -461.433)">
    <path id="Ellipse_382" data-name="Ellipse 382" d="M22.774,0a22.774,22.774,0,0,1,0,45.548,23.935,23.935,0,0,1-3.716-.3A22.776,22.776,0,0,1,22.774,0Z" transform="translate(722.433 461.433)" fill="#f6695d"/>
    <g id="Group_1176" data-name="Group 1176" transform="translate(734.412 476.381)">
      <g id="Group_49" data-name="Group 49" transform="translate(12.12)" clip-path="url(#clip-path)">
        <g id="Group_48" data-name="Group 48" transform="translate(-6.073 -6.073)" style="isolation: isolate">
          <g id="Group_47" data-name="Group 47" clip-path="url(#clip-path-2)">
            <g id="Group_46" data-name="Group 46" transform="translate(5.521 5.521)" clip-path="url(#clip-path-3)">
              <path id="Path_1816" data-name="Path 1816" d="M0,26.5V0H20.316V26.5Z" transform="translate(-4.969 -4.969)" fill="#23617b"/>
            </g>
          </g>
        </g>
      </g>
      <rect id="Rectangle_199" data-name="Rectangle 199" width="19.426" height="2.534" transform="translate(0 6.462)" fill="#23617b"/>
    </g>
  </g>
</svg>
