<?xml version="1.0" encoding="utf-8"?>
<!-- Generator: Adobe Illustrator 25.2.3, SVG Export Plug-In . SVG Version: 6.00 Build 0)  -->
<svg version="1.1" id="Component_1_1" xmlns="http://www.w3.org/2000/svg" xmlns:xlink="http://www.w3.org/1999/xlink" x="0px"
	 y="0px" viewBox="0 0 235 171.2" style="enable-background:new 0 0 235 171.2;" xml:space="preserve">
<style type="text/css">
	.st0{fill:none;}
	.st1{fill:none;stroke:#469ABD;stroke-width:3;}
	.st2{fill:#469ABD;}
	.st3{enable-background:new    ;}
</style>
<g id="Ellipse_384" transform="translate(118.663 171.249) rotate(-135)">
	<circle class="st0" cx="60.5" cy="60.5" r="60.5"/>
	<circle class="st1" cx="60.5" cy="60.5" r="59"/>
</g>
<g>
	<polygon class="st2" points="226.9,82.1 205.1,60.2 203.3,62 225.2,83.8 227.3,85.9 225.2,88.1 203.3,109.9 205.1,111.7 
		226.9,89.8 230.8,85.9 	"/>
	<polygon class="st2" points="7.7,85.9 9.9,83.8 31.7,62 29.9,60.2 8.1,82.1 4.2,85.9 8.1,89.8 29.9,111.7 31.7,109.9 9.9,88.1 	"/>
	<path class="st2" d="M29.9,111.7L8.1,89.8l-3.9-3.9l3.9-3.9l21.8-21.8l1.7,1.7L9.9,83.8l-2.1,2.1l2.1,2.1l21.8,21.8L29.9,111.7z"/>
	<path class="st2" d="M226.9,89.8l-21.8,21.8l-1.7-1.7l21.8-21.8l2.1-2.1l-2.1-2.1L203.3,62l1.7-1.7l21.8,21.8l3.9,3.9L226.9,89.8z"
		/>
</g>
<g class="st3">
	<path class="st2" d="M73.8,83c0.5-0.8,1.1-1.4,1.9-1.9c0.8-0.5,1.7-0.7,2.7-0.7c1.1,0,2.1,0.3,3,0.8c0.9,0.5,1.5,1.3,1.9,2.3h-2.1
		c-0.3-0.5-0.6-1-1.1-1.2c-0.5-0.3-1-0.4-1.7-0.4c-0.7,0-1.3,0.2-1.8,0.5c-0.5,0.3-1,0.8-1.3,1.3c-0.3,0.6-0.5,1.3-0.5,2
		c0,0.8,0.2,1.4,0.5,2c0.3,0.6,0.7,1,1.3,1.3c0.5,0.3,1.2,0.5,1.8,0.5c0.6,0,1.2-0.1,1.7-0.4c0.5-0.3,0.9-0.7,1.1-1.2h2.1
		c-0.4,1-1,1.8-1.9,2.3c-0.9,0.5-1.9,0.8-3,0.8c-1,0-1.9-0.2-2.7-0.7s-1.5-1.1-1.9-1.9c-0.5-0.8-0.7-1.7-0.7-2.7
		C73,84.7,73.3,83.8,73.8,83z"/>
	<path class="st2" d="M86.9,79.9V91h-1.7V79.9H86.9z"/>
	<path class="st2" d="M89.3,81.3c-0.2-0.2-0.3-0.5-0.3-0.8c0-0.3,0.1-0.6,0.3-0.8s0.5-0.3,0.8-0.3c0.3,0,0.6,0.1,0.8,0.3
		c0.2,0.2,0.3,0.5,0.3,0.8c0,0.3-0.1,0.6-0.3,0.8c-0.2,0.2-0.5,0.3-0.8,0.3C89.7,81.6,89.5,81.5,89.3,81.3z M90.9,82.7V91h-1.7v-8.3
		H90.9z"/>
	<path class="st2" d="M93.1,84.6c0.3-0.6,0.8-1.1,1.4-1.5c0.6-0.3,1.3-0.5,2.1-0.5c1,0,1.8,0.2,2.5,0.7s1.1,1.2,1.3,2h-1.8
		c-0.1-0.4-0.4-0.7-0.7-1c-0.3-0.2-0.7-0.3-1.2-0.3c-0.7,0-1.3,0.2-1.7,0.7c-0.4,0.5-0.6,1.2-0.6,2.1c0,0.9,0.2,1.6,0.6,2.1
		c0.4,0.5,1,0.8,1.7,0.8c1,0,1.6-0.4,2-1.3h1.8c-0.2,0.8-0.7,1.5-1.4,2s-1.5,0.7-2.5,0.7c-0.8,0-1.5-0.2-2.1-0.5
		c-0.6-0.4-1.1-0.9-1.4-1.5c-0.3-0.6-0.5-1.4-0.5-2.2C92.6,86,92.7,85.3,93.1,84.6z"/>
	<path class="st2" d="M105.4,86.9l3.8,4.1h-2.3l-3.1-3.6V91h-1.7V79.9h1.7v6.4l3-3.6h2.4L105.4,86.9z"/>
	<path class="st2" d="M122.4,91l-1.3-1.3c-0.5,0.5-1,0.9-1.6,1.1c-0.6,0.2-1.2,0.4-2,0.4c-0.7,0-1.4-0.1-2-0.4
		c-0.6-0.3-1-0.6-1.3-1.1c-0.3-0.5-0.5-1-0.5-1.7c0-0.7,0.2-1.4,0.6-1.9c0.4-0.6,1-1,1.8-1.3c-0.3-0.4-0.5-0.7-0.6-1
		c-0.1-0.3-0.2-0.6-0.2-1c0-0.5,0.1-0.9,0.4-1.2s0.6-0.6,1-0.9c0.4-0.2,0.9-0.3,1.5-0.3c0.6,0,1.1,0.1,1.5,0.3
		c0.4,0.2,0.7,0.5,0.9,0.9c0.2,0.4,0.3,0.8,0.2,1.3h-1.7c0-0.4-0.1-0.7-0.3-0.9c-0.2-0.2-0.4-0.3-0.8-0.3s-0.6,0.1-0.8,0.3
		s-0.3,0.4-0.3,0.7c0,0.3,0.1,0.5,0.2,0.8c0.2,0.3,0.4,0.6,0.8,1l2.8,2.7l1.1-1.8h1.8l-1.3,2.3l-0.4,0.6l2.5,2.5H122.4z M120,88.6
		l-2.8-2.8c-1.2,0.5-1.8,1.2-1.8,2.1c0,0.5,0.2,0.9,0.6,1.3c0.4,0.3,0.9,0.5,1.5,0.5C118.4,89.7,119.3,89.4,120,88.6z"/>
	<path class="st2" d="M136,81.2c0.8,0.4,1.5,1,1.9,1.8c0.5,0.8,0.7,1.7,0.7,2.8s-0.2,2-0.7,2.8s-1.1,1.4-1.9,1.8s-1.8,0.6-2.9,0.6
		h-3.4V80.6h3.4C134.2,80.6,135.1,80.8,136,81.2z M135.9,88.6c0.7-0.7,1-1.6,1-2.8c0-1.2-0.3-2.2-1-2.8c-0.6-0.7-1.6-1-2.8-1h-1.7
		v7.6h1.7C134.3,89.6,135.2,89.3,135.9,88.6z"/>
	<path class="st2" d="M143,83c0.4-0.2,0.9-0.4,1.5-0.4v1.8H144c-0.7,0-1.2,0.2-1.5,0.5s-0.5,0.9-0.5,1.8V91h-1.7v-8.3h1.7v1.2
		C142.2,83.5,142.6,83.2,143,83z"/>
	<path class="st2" d="M146,84.6c0.3-0.6,0.8-1.1,1.4-1.5c0.6-0.4,1.3-0.5,2-0.5c0.7,0,1.2,0.1,1.7,0.4c0.5,0.3,0.9,0.6,1.2,1v-1.2
		h1.7V91h-1.7v-1.2c-0.3,0.4-0.7,0.7-1.2,1s-1.1,0.4-1.7,0.4c-0.7,0-1.4-0.2-1.9-0.5c-0.6-0.4-1.1-0.9-1.4-1.5
		c-0.3-0.7-0.5-1.4-0.5-2.2S145.7,85.3,146,84.6z M151.9,85.4c-0.2-0.4-0.5-0.7-0.9-1s-0.8-0.3-1.2-0.3c-0.4,0-0.9,0.1-1.2,0.3
		c-0.4,0.2-0.7,0.5-0.9,0.9c-0.2,0.4-0.4,0.9-0.4,1.5s0.1,1.1,0.4,1.5c0.2,0.4,0.5,0.8,0.9,1s0.8,0.3,1.2,0.3c0.4,0,0.8-0.1,1.2-0.3
		s0.7-0.5,0.9-1c0.2-0.4,0.4-0.9,0.4-1.5C152.2,86.3,152.1,85.8,151.9,85.4z"/>
	<path class="st2" d="M161.3,83c0.5,0.3,0.9,0.6,1.2,1v-1.2h1.7v8.4c0,0.8-0.2,1.4-0.5,2c-0.3,0.6-0.8,1.1-1.4,1.4
		c-0.6,0.3-1.3,0.5-2.2,0.5c-1.1,0-2-0.3-2.8-0.8c-0.7-0.5-1.2-1.2-1.3-2.1h1.7c0.1,0.4,0.4,0.8,0.8,1c0.4,0.3,0.9,0.4,1.5,0.4
		c0.7,0,1.2-0.2,1.7-0.6s0.6-1,0.6-1.8v-1.4c-0.3,0.4-0.7,0.7-1.2,1s-1.1,0.4-1.7,0.4c-0.7,0-1.4-0.2-2-0.5s-1.1-0.9-1.4-1.5
		c-0.3-0.7-0.5-1.4-0.5-2.2s0.2-1.6,0.5-2.2c0.3-0.6,0.8-1.1,1.4-1.5c0.6-0.4,1.3-0.5,2-0.5C160.2,82.6,160.8,82.7,161.3,83z
		 M162.1,85.4c-0.2-0.4-0.5-0.7-0.9-1s-0.8-0.3-1.2-0.3c-0.4,0-0.9,0.1-1.2,0.3c-0.4,0.2-0.7,0.5-0.9,0.9c-0.2,0.4-0.4,0.9-0.4,1.5
		s0.1,1.1,0.4,1.5c0.2,0.4,0.5,0.8,0.9,1s0.8,0.3,1.2,0.3c0.4,0,0.8-0.1,1.2-0.3s0.7-0.5,0.9-1c0.2-0.4,0.4-0.9,0.4-1.5
		C162.4,86.3,162.3,85.8,162.1,85.4z"/>
</g>
</svg>
