<svg xmlns="http://www.w3.org/2000/svg" width="235.039" height="171.249" viewBox="0 0 235.039 171.249">
  <g id="Group_1222" data-name="Group 1222" transform="translate(-120.458 -847)">
    <g id="Ellipse_384" data-name="Ellipse 384" transform="translate(239.121 1018.249) rotate(-135)" fill="none" stroke="#469abd" stroke-width="3">
      <circle cx="60.546" cy="60.546" r="60.546" stroke="none"/>
      <circle cx="60.546" cy="60.546" r="59.046" fill="none"/>
    </g>
    <g id="Path_6399" data-name="Path 6399" transform="translate(156.395 962.895) rotate(180)" fill="#469abd" fill-rule="evenodd">
      <path d="M 5.989579200744629 57.77288436889648 L 2.121416807174683 53.90480804443359 L 25.01853370666504 31.00777626037598 L 26.07920265197754 29.94711494445801 L 25.01853370666504 28.88645553588867 L 2.121329784393311 5.989386081695557 L 5.989418983459473 2.121323108673096 L 28.8864631652832 25.01839637756348 L 33.81528472900391 29.9471607208252 L 28.88647270202637 34.87587738037109 L 5.989579200744629 57.77288436889648 Z" stroke="none"/>
      <path d="M 5.989414215087891 4.242633819580078 L 4.242654800415039 5.9893798828125 L 26.07917976379395 27.8257942199707 L 28.20052337646484 29.94711875915527 L 26.07917976379395 32.06843948364258 L 4.242755889892578 53.90478515625 L 5.989578247070312 55.65157318115234 L 27.82581329345703 33.81519317626953 L 31.69394302368164 29.94715118408203 L 27.82579040527344 26.07906341552734 L 5.989414215087891 4.242633819580078 M 5.989423751831055 -3.814697265625e-06 L 29.94711303710938 23.95774078369141 L 35.93662261962891 29.94716262817383 L 29.94711303710938 35.93653869628906 L 5.989603042602539 59.89419555664062 L 9.1552734375e-05 53.90480804443359 L 23.9578685760498 29.94711875915527 L 3.814697265625e-06 5.989372253417969 L 5.989423751831055 -3.814697265625e-06 Z" stroke="none" fill="#f8f8f7"/>
    </g>
    <g id="Path_6400" data-name="Path 6400" transform="translate(319.561 903)" fill="#469abd" fill-rule="evenodd">
      <path d="M 5.989579200744629 57.77288436889648 L 2.121416807174683 53.90480804443359 L 25.01853370666504 31.00777626037598 L 26.07920265197754 29.94711494445801 L 25.01853370666504 28.88645553588867 L 2.121329784393311 5.989386081695557 L 5.989418983459473 2.121323108673096 L 28.8864631652832 25.01839637756348 L 33.81528472900391 29.9471607208252 L 28.88647270202637 34.87587738037109 L 5.989579200744629 57.77288436889648 Z" stroke="none"/>
      <path d="M 5.989414215087891 4.242633819580078 L 4.242654800415039 5.9893798828125 L 26.07917976379395 27.8257942199707 L 28.20052337646484 29.94711875915527 L 26.07917976379395 32.06843948364258 L 4.242755889892578 53.90478515625 L 5.989578247070312 55.65157318115234 L 27.82581329345703 33.81519317626953 L 31.69394302368164 29.94715118408203 L 27.82579040527344 26.07906341552734 L 5.989414215087891 4.242633819580078 M 5.989423751831055 -3.814697265625e-06 L 29.94711303710938 23.95774078369141 L 35.93662261962891 29.94716262817383 L 29.94711303710938 35.93653869628906 L 5.989603042602539 59.89419555664062 L 9.1552734375e-05 53.90480804443359 L 23.9578685760498 29.94711875915527 L 3.814697265625e-06 5.989372253417969 L 5.989423751831055 -3.814697265625e-06 Z" stroke="none" fill="#f8f8f7"/>
    </g>
    <text id="Click_Drag" data-name="Click &amp; Drag" transform="translate(145 922)" fill="#469abd" font-size="15" font-family="Poppins-Medium, Poppins" font-weight="500"><tspan x="-46.388" y="16">Click &amp; Drag</tspan></text>
  </g>
</svg>
