<svg xmlns="http://www.w3.org/2000/svg" width="583.702" height="565.222" viewBox="0 0 583.702 565.222">
  <g id="Group_1201" data-name="Group 1201" transform="matrix(0.616, -0.788, 0.788, 0.616, -678.663, -1249.459)">
    <line id="Line_175" data-name="Line 175" x2="231.543" y2="8.676" transform="translate(-607.382 1720.504)" fill="none" stroke="#238ab5" stroke-miterlimit="10" stroke-width="2"/>
    <line id="Line_176" data-name="Line 176" x1="254.117" y2="71.348" transform="translate(-859.639 1721.361)" fill="none" stroke="#238ab5" stroke-miterlimit="10" stroke-width="2"/>
    <line id="Line_177" data-name="Line 177" x1="50.823" y1="269.104" transform="translate(-603.241 1720.709)" fill="none" stroke="#238ab5" stroke-miterlimit="10" stroke-width="2"/>
    <line id="Line_178" data-name="Line 178" x1="163.873" y1="149.212" transform="translate(-607.476 1711.587)" fill="none" stroke="#238ab5" stroke-miterlimit="10" stroke-width="2"/>
    <line id="Line_179" data-name="Line 179" x1="221.187" y2="162.975" transform="translate(-620.739 1568.221)" fill="none" stroke="#238ab5" stroke-miterlimit="10" stroke-width="2"/>
    <line id="Line_180" data-name="Line 180" y1="151.819" x2="86.009" transform="translate(-695.114 1727.225)" fill="none" stroke="#238ab5" stroke-miterlimit="10" stroke-width="2"/>
    <line id="Line_181" data-name="Line 181" x1="13.032" y2="99.692" transform="translate(-601.938 1600.818)" fill="none" stroke="#238ab5" stroke-miterlimit="10" stroke-width="2"/>
    <line id="Line_182" data-name="Line 182" x2="120.489" y2="214.145" transform="translate(-741.111 1484.604)" fill="none" stroke="#238ab5" stroke-miterlimit="10" stroke-width="2"/>
    <circle id="Ellipse_370" data-name="Ellipse 370" cx="21.003" cy="21.003" r="21.003" transform="translate(-571.123 1971.568)" fill="#f6695d" stroke="#238ab5" stroke-miterlimit="10" stroke-width="2"/>
    <circle id="Ellipse_371" data-name="Ellipse 371" cx="21.003" cy="21.003" r="21.003" transform="translate(-461.027 1841.299)" fill="#f6695d" stroke="#238ab5" stroke-miterlimit="10" stroke-width="2"/>
    <circle id="Ellipse_372" data-name="Ellipse 372" cx="21.003" cy="21.003" r="21.003" transform="translate(-883.643 1772.233)" fill="#f6695d" stroke="#238ab5" stroke-miterlimit="10" stroke-width="2"/>
    <circle id="Ellipse_373" data-name="Ellipse 373" cx="21.003" cy="21.003" r="21.003" transform="translate(-764.813 1460.554)" fill="#f6695d" stroke="#238ab5" stroke-miterlimit="10" stroke-width="2"/>
    <circle id="Ellipse_374" data-name="Ellipse 374" cx="21.003" cy="21.003" r="21.003" transform="translate(-609.679 1584.547)" fill="#f6695d" stroke="#238ab5" stroke-miterlimit="10" stroke-width="2"/>
    <circle id="Ellipse_375" data-name="Ellipse 375" cx="21.003" cy="21.003" r="21.003" transform="translate(-420.555 1547.218)" fill="#f6695d" stroke="#238ab5" stroke-miterlimit="10" stroke-width="2"/>
    <circle id="Ellipse_376" data-name="Ellipse 376" cx="21.003" cy="21.003" r="21.003" transform="translate(-392.41 1708.947)" fill="#f6695d" stroke="#238ab5" stroke-miterlimit="10" stroke-width="2"/>
    <circle id="Ellipse_378" data-name="Ellipse 378" cx="21.003" cy="21.003" r="21.003" transform="translate(-722.907 1867.751)" fill="#f6695d" stroke="#238ab5" stroke-miterlimit="10" stroke-width="2"/>
    <line id="Line_176-2" data-name="Line 176" x1="113.375" y1="37.792" transform="translate(-735.512 1680.963)" fill="none" stroke="#238ab5" stroke-miterlimit="10" stroke-width="2"/>
    <circle id="Ellipse_372-2" data-name="Ellipse 372" cx="21.003" cy="21.003" r="21.003" transform="translate(-767.593 1651.443)" fill="#f6695d" stroke="#238ab5" stroke-miterlimit="10" stroke-width="2"/>
    <circle id="Ellipse_377" data-name="Ellipse 377" cx="38.262" cy="38.262" r="38.262" transform="translate(-645.643 1682.242)" fill="#f6695d" stroke="#238ab5" stroke-miterlimit="10" stroke-width="4"/>
    <path id="Path_6388" data-name="Path 6388" d="M-607.226,1683.793a36.563,36.563,0,0,0-8.6,1.03,36.638,36.638,0,0,1,33.514,36.456,36.654,36.654,0,0,1-27.994,35.565c1.017.085,2.042.139,3.08.139a36.637,36.637,0,0,0,36.6-36.6A36.637,36.637,0,0,0-607.226,1683.793Z" fill="#d16661"/>
    <path id="Path_6389" data-name="Path 6389" d="M-371.484,1710.121a21.159,21.159,0,0,0-4.85.565,20.32,20.32,0,0,1,18.9,19.987,20.217,20.217,0,0,1-15.784,19.5c.573.047,1.151.077,1.737.077,11.377,0,20.633-9,20.633-20.063S-360.107,1710.121-371.484,1710.121Z" fill="#d16661"/>
    <path id="Path_6390" data-name="Path 6390" d="M-439.947,1882.41a21.219,21.219,0,0,0,4.85-.563c-10.567-.859-18.9-9.468-18.9-19.933a20.177,20.177,0,0,1,15.784-19.446c-.573-.046-1.151-.076-1.737-.076-11.377,0-20.633,8.976-20.633,20.009S-451.324,1882.41-439.947,1882.41Z" fill="#d16661"/>
    <path id="Path_6391" data-name="Path 6391" d="M-550.862,1972.872a21.271,21.271,0,0,0-4.849.561c10.567.855,18.9,9.429,18.9,19.852a20.113,20.113,0,0,1-15.784,19.366c.573.046,1.151.076,1.736.076,11.378,0,20.634-8.94,20.634-19.927S-539.484,1972.872-550.862,1972.872Z" fill="#d16661"/>
    <path id="Path_6392" data-name="Path 6392" d="M-720.229,1880.757a21.228,21.228,0,0,0-1.439,4.665c5.042-9.326,16.268-13.486,25.836-9.275a20.159,20.159,0,0,1,11.419,22.272c.274-.506.534-1.023.77-1.559,4.583-10.413.1-22.5-9.981-26.936S-715.646,1870.344-720.229,1880.757Z" fill="#d16661"/>
    <path id="Path_6393" data-name="Path 6393" d="M-881.751,1799.609a21.243,21.243,0,0,0,1.915,4.491c-2.171-10.377,3.723-20.8,13.758-23.77a20.174,20.174,0,0,1,23.118,9.627c-.118-.563-.253-1.126-.419-1.687-3.225-10.911-14.454-17.244-25.033-14.118S-884.975,1788.7-881.751,1799.609Z" fill="#d16661"/>
    <path id="Path_6394" data-name="Path 6394" d="M-731.4,1659.5a21.308,21.308,0,0,0-3.507-3.4c6.037,8.714,4.694,20.585-3.358,27.184a20.1,20.1,0,0,1-24.966.053c.328.473.672.939,1.043,1.391,7.212,8.8,19.985,10.3,28.473,3.342S-724.186,1668.3-731.4,1659.5Z" fill="#d16661"/>
    <path id="Path_6395" data-name="Path 6395" d="M-762.738,1475.613a21.4,21.4,0,0,0-1.124,4.75c4.4-9.647,15.252-14.578,25.008-11.05a20.04,20.04,0,0,1,12.758,21.4c.239-.524.463-1.058.662-1.608,3.869-10.7-1.35-22.429-11.634-26.149S-758.868,1464.914-762.738,1475.613Z" fill="#d16661"/>
    <path id="Path_6396" data-name="Path 6396" d="M-573.828,1592.289a21.439,21.439,0,0,0-3.506-3.4c6.04,8.712,4.726,20.559-3.29,27.129a20.028,20.028,0,0,1-24.9,0c.328.473.671.939,1.042,1.391,7.212,8.8,19.955,10.324,28.406,3.4S-566.617,1601.088-573.828,1592.289Z" fill="#d16661"/>
    <path id="Path_6397" data-name="Path 6397" d="M-417.94,1561.221a21.444,21.444,0,0,0-1.365,4.686c4.876-9.412,15.946-13.8,25.481-9.789,8.576,3.6,13.172,12.846,11.6,22,.265-.511.515-1.032.742-1.572,4.408-10.489-.184-22.459-10.236-26.682S-413.532,1550.732-417.94,1561.221Z" fill="#d16661"/>
  </g>
</svg>
