<svg xmlns="http://www.w3.org/2000/svg" width="413.579" height="258.352" viewBox="0 0 413.579 258.352">
  <g id="Group_1148" data-name="Group 1148" transform="translate(563.329 329.006) rotate(180)">
    <path id="Path_4511" data-name="Path 4511" d="M154.193,74.04a1.693,1.693,0,1,0-1.693-1.693A1.693,1.693,0,0,0,154.193,74.04Z" transform="translate(6.789 0)" fill="#95d6ee"/>
    <path id="Path_4512" data-name="Path 4512" d="M159.693,74.04A1.693,1.693,0,1,0,158,72.347,1.693,1.693,0,0,0,159.693,74.04Z" transform="translate(20.368 0)" fill="#95d6ee"/>
    <path id="Path_4513" data-name="Path 4513" d="M165.193,74.04a1.693,1.693,0,1,0-1.693-1.693A1.693,1.693,0,0,0,165.193,74.04Z" transform="translate(33.946 0)" fill="#95d6ee"/>
    <circle id="Ellipse_275" data-name="Ellipse 275" cx="1.693" cy="1.693" r="1.693" transform="translate(216.525 70.655)" fill="#95d6ee"/>
    <path id="Path_4514" data-name="Path 4514" d="M176.193,74.04a1.693,1.693,0,1,0-1.693-1.693A1.691,1.691,0,0,0,176.193,74.04Z" transform="translate(61.104 0)" fill="#95d6ee"/>
    <path id="Path_4515" data-name="Path 4515" d="M181.693,74.04A1.693,1.693,0,1,0,180,72.347,1.691,1.691,0,0,0,181.693,74.04Z" transform="translate(74.682 0)" fill="#95d6ee"/>
    <path id="Path_4516" data-name="Path 4516" d="M187.193,74.04a1.693,1.693,0,1,0-1.693-1.693A1.691,1.691,0,0,0,187.193,74.04Z" transform="translate(88.261 0)" fill="#95d6ee"/>
    <path id="Path_4517" data-name="Path 4517" d="M192.693,74.04A1.693,1.693,0,1,0,191,72.347,1.691,1.691,0,0,0,192.693,74.04Z" transform="translate(101.839 0)" fill="#95d6ee"/>
    <circle id="Ellipse_276" data-name="Ellipse 276" cx="1.693" cy="1.693" r="1.693" transform="translate(311.919 70.655)" fill="#95d6ee"/>
    <path id="Path_4518" data-name="Path 4518" d="M203.7,74.04a1.693,1.693,0,1,0-1.7-1.693A1.69,1.69,0,0,0,203.7,74.04Z" transform="translate(128.997 0)" fill="#95d6ee"/>
    <path id="Path_4519" data-name="Path 4519" d="M209.19,74.04a1.693,1.693,0,1,0-1.689-1.693A1.694,1.694,0,0,0,209.19,74.04Z" transform="translate(142.578 0)" fill="#95d6ee"/>
    <path id="Path_4520" data-name="Path 4520" d="M214.7,74.04a1.693,1.693,0,1,0-1.7-1.693A1.69,1.69,0,0,0,214.7,74.04Z" transform="translate(156.154 0)" fill="#95d6ee"/>
    <path id="Path_4521" data-name="Path 4521" d="M220.19,74.04a1.693,1.693,0,1,0-1.689-1.693A1.694,1.694,0,0,0,220.19,74.04Z" transform="translate(169.735 0)" fill="#95d6ee"/>
    <circle id="Ellipse_277" data-name="Ellipse 277" cx="1.693" cy="1.693" r="1.693" transform="translate(407.313 70.655)" fill="#95d6ee"/>
    <path id="Path_4522" data-name="Path 4522" d="M231.194,74.04a1.693,1.693,0,1,0-1.693-1.693A1.693,1.693,0,0,0,231.194,74.04Z" transform="translate(196.892 0)" fill="#95d6ee"/>
    <path id="Path_4523" data-name="Path 4523" d="M236.694,74.04A1.693,1.693,0,1,0,235,72.347,1.693,1.693,0,0,0,236.694,74.04Z" transform="translate(210.471 0)" fill="#95d6ee"/>
    <path id="Path_4524" data-name="Path 4524" d="M242.194,74.04a1.693,1.693,0,1,0-1.693-1.693A1.693,1.693,0,0,0,242.194,74.04Z" transform="translate(224.049 0)" fill="#95d6ee"/>
    <path id="Path_4525" data-name="Path 4525" d="M247.694,74.04A1.693,1.693,0,1,0,246,72.347,1.693,1.693,0,0,0,247.694,74.04Z" transform="translate(237.628 0)" fill="#95d6ee"/>
    <circle id="Ellipse_278" data-name="Ellipse 278" cx="1.693" cy="1.693" r="1.693" transform="translate(502.707 70.655)" fill="#95d6ee"/>
    <path id="Path_4526" data-name="Path 4526" d="M258.694,74.04A1.693,1.693,0,1,0,257,72.347,1.691,1.691,0,0,0,258.694,74.04Z" transform="translate(264.785 0)" fill="#95d6ee"/>
    <path id="Path_4527" data-name="Path 4527" d="M264.194,74.04a1.693,1.693,0,1,0-1.693-1.693A1.691,1.691,0,0,0,264.194,74.04Z" transform="translate(278.364 0)" fill="#95d6ee"/>
    <path id="Path_4528" data-name="Path 4528" d="M269.694,74.04A1.693,1.693,0,1,0,268,72.347,1.691,1.691,0,0,0,269.694,74.04Z" transform="translate(291.942 0)" fill="#95d6ee"/>
    <path id="Path_4529" data-name="Path 4529" d="M151.443,77.54a1.693,1.693,0,1,0-1.693-1.693A1.693,1.693,0,0,0,151.443,77.54Z" transform="translate(0 8.641)" fill="#95d6ee"/>
    <circle id="Ellipse_279" data-name="Ellipse 279" cx="1.693" cy="1.693" r="1.693" transform="translate(168.827 82.796)" fill="#95d6ee"/>
    <path id="Path_4530" data-name="Path 4530" d="M162.443,77.54a1.693,1.693,0,1,0-1.693-1.693A1.693,1.693,0,0,0,162.443,77.54Z" transform="translate(27.157 8.641)" fill="#95d6ee"/>
    <path id="Path_4531" data-name="Path 4531" d="M167.943,77.54a1.693,1.693,0,1,0-1.693-1.693A1.691,1.691,0,0,0,167.943,77.54Z" transform="translate(40.736 8.641)" fill="#95d6ee"/>
    <path id="Path_4532" data-name="Path 4532" d="M173.443,77.54a1.693,1.693,0,1,0-1.693-1.693A1.693,1.693,0,0,0,173.443,77.54Z" transform="translate(54.314 8.641)" fill="#95d6ee"/>
    <path id="Path_4533" data-name="Path 4533" d="M178.943,77.54a1.693,1.693,0,1,0-1.693-1.693A1.691,1.691,0,0,0,178.943,77.54Z" transform="translate(67.893 8.641)" fill="#95d6ee"/>
    <circle id="Ellipse_280" data-name="Ellipse 280" cx="1.693" cy="1.693" r="1.693" transform="translate(264.222 82.796)" fill="#95d6ee"/>
    <path id="Path_4534" data-name="Path 4534" d="M189.943,77.54a1.693,1.693,0,1,0-1.693-1.693A1.691,1.691,0,0,0,189.943,77.54Z" transform="translate(95.05 8.641)" fill="#95d6ee"/>
    <path id="Path_4535" data-name="Path 4535" d="M195.443,77.54a1.693,1.693,0,1,0-1.693-1.693A1.691,1.691,0,0,0,195.443,77.54Z" transform="translate(108.629 8.641)" fill="#95d6ee"/>
    <path id="Path_4536" data-name="Path 4536" d="M200.943,77.54a1.693,1.693,0,1,0-1.693-1.693A1.691,1.691,0,0,0,200.943,77.54Z" transform="translate(122.207 8.641)" fill="#95d6ee"/>
    <path id="Path_4537" data-name="Path 4537" d="M206.443,77.54a1.693,1.693,0,1,0-1.693-1.693A1.694,1.694,0,0,0,206.443,77.54Z" transform="translate(135.786 8.641)" fill="#95d6ee"/>
    <circle id="Ellipse_281" data-name="Ellipse 281" cx="1.693" cy="1.693" r="1.693" transform="translate(359.616 82.796)" fill="#95d6ee"/>
    <path id="Path_4538" data-name="Path 4538" d="M217.446,77.54a1.693,1.693,0,1,0-1.7-1.693A1.693,1.693,0,0,0,217.446,77.54Z" transform="translate(162.943 8.641)" fill="#95d6ee"/>
    <path id="Path_4539" data-name="Path 4539" d="M222.944,77.54a1.693,1.693,0,1,0-1.693-1.693A1.693,1.693,0,0,0,222.944,77.54Z" transform="translate(176.524 8.641)" fill="#95d6ee"/>
    <path id="Path_4540" data-name="Path 4540" d="M228.444,77.54a1.693,1.693,0,1,0-1.693-1.693A1.693,1.693,0,0,0,228.444,77.54Z" transform="translate(190.103 8.641)" fill="#95d6ee"/>
    <path id="Path_4541" data-name="Path 4541" d="M233.944,77.54a1.693,1.693,0,1,0-1.693-1.693A1.693,1.693,0,0,0,233.944,77.54Z" transform="translate(203.681 8.641)" fill="#95d6ee"/>
    <circle id="Ellipse_282" data-name="Ellipse 282" cx="1.693" cy="1.693" r="1.693" transform="translate(455.01 82.796)" fill="#95d6ee"/>
    <path id="Path_4542" data-name="Path 4542" d="M244.944,77.54a1.693,1.693,0,1,0-1.693-1.693A1.693,1.693,0,0,0,244.944,77.54Z" transform="translate(230.838 8.641)" fill="#95d6ee"/>
    <path id="Path_4543" data-name="Path 4543" d="M250.444,77.54a1.693,1.693,0,1,0-1.693-1.693A1.691,1.691,0,0,0,250.444,77.54Z" transform="translate(244.417 8.641)" fill="#95d6ee"/>
    <path id="Path_4544" data-name="Path 4544" d="M255.944,77.54a1.693,1.693,0,1,0-1.693-1.693A1.693,1.693,0,0,0,255.944,77.54Z" transform="translate(257.996 8.641)" fill="#95d6ee"/>
    <path id="Path_4545" data-name="Path 4545" d="M261.444,77.54a1.693,1.693,0,1,0-1.693-1.693A1.691,1.691,0,0,0,261.444,77.54Z" transform="translate(271.574 8.641)" fill="#95d6ee"/>
    <circle id="Ellipse_283" data-name="Ellipse 283" cx="1.693" cy="1.693" r="1.693" transform="translate(550.404 82.796)" fill="#95d6ee"/>
    <path id="Path_4546" data-name="Path 4546" d="M154.193,81.04a1.693,1.693,0,1,0-1.693-1.693A1.693,1.693,0,0,0,154.193,81.04Z" transform="translate(6.789 17.282)" fill="#95d6ee"/>
    <path id="Path_4547" data-name="Path 4547" d="M159.693,81.04A1.693,1.693,0,1,0,158,79.347,1.693,1.693,0,0,0,159.693,81.04Z" transform="translate(20.368 17.282)" fill="#95d6ee"/>
    <path id="Path_4548" data-name="Path 4548" d="M165.193,81.04a1.693,1.693,0,1,0-1.693-1.693A1.693,1.693,0,0,0,165.193,81.04Z" transform="translate(33.946 17.282)" fill="#95d6ee"/>
    <path id="Path_4549" data-name="Path 4549" d="M170.693,81.04A1.693,1.693,0,1,0,169,79.347,1.691,1.691,0,0,0,170.693,81.04Z" transform="translate(47.525 17.282)" fill="#95d6ee"/>
    <path id="Path_4550" data-name="Path 4550" d="M176.193,81.04a1.693,1.693,0,1,0-1.693-1.693A1.691,1.691,0,0,0,176.193,81.04Z" transform="translate(61.104 17.282)" fill="#95d6ee"/>
    <path id="Path_4551" data-name="Path 4551" d="M181.693,81.04A1.693,1.693,0,1,0,180,79.347,1.691,1.691,0,0,0,181.693,81.04Z" transform="translate(74.682 17.282)" fill="#95d6ee"/>
    <path id="Path_4552" data-name="Path 4552" d="M187.193,81.04a1.693,1.693,0,1,0-1.693-1.693A1.691,1.691,0,0,0,187.193,81.04Z" transform="translate(88.261 17.282)" fill="#95d6ee"/>
    <path id="Path_4553" data-name="Path 4553" d="M192.693,81.04A1.693,1.693,0,1,0,191,79.347,1.691,1.691,0,0,0,192.693,81.04Z" transform="translate(101.839 17.282)" fill="#95d6ee"/>
    <path id="Path_4554" data-name="Path 4554" d="M198.193,81.04a1.693,1.693,0,1,0-1.693-1.693A1.694,1.694,0,0,0,198.193,81.04Z" transform="translate(115.418 17.282)" fill="#95d6ee"/>
    <path id="Path_4555" data-name="Path 4555" d="M203.7,81.04a1.693,1.693,0,1,0-1.7-1.693A1.69,1.69,0,0,0,203.7,81.04Z" transform="translate(128.997 17.282)" fill="#95d6ee"/>
    <path id="Path_4556" data-name="Path 4556" d="M209.19,81.04a1.693,1.693,0,1,0-1.689-1.693A1.694,1.694,0,0,0,209.19,81.04Z" transform="translate(142.578 17.282)" fill="#95d6ee"/>
    <path id="Path_4557" data-name="Path 4557" d="M214.7,81.04a1.693,1.693,0,1,0-1.7-1.693A1.69,1.69,0,0,0,214.7,81.04Z" transform="translate(156.154 17.282)" fill="#95d6ee"/>
    <path id="Path_4558" data-name="Path 4558" d="M220.19,81.04a1.693,1.693,0,1,0-1.689-1.693A1.694,1.694,0,0,0,220.19,81.04Z" transform="translate(169.735 17.282)" fill="#95d6ee"/>
    <path id="Path_4559" data-name="Path 4559" d="M225.7,81.04a1.693,1.693,0,1,0-1.7-1.693A1.693,1.693,0,0,0,225.7,81.04Z" transform="translate(183.311 17.282)" fill="#95d6ee"/>
    <path id="Path_4560" data-name="Path 4560" d="M231.194,81.04a1.693,1.693,0,1,0-1.693-1.693A1.693,1.693,0,0,0,231.194,81.04Z" transform="translate(196.892 17.282)" fill="#95d6ee"/>
    <path id="Path_4561" data-name="Path 4561" d="M236.694,81.04A1.693,1.693,0,1,0,235,79.347,1.693,1.693,0,0,0,236.694,81.04Z" transform="translate(210.471 17.282)" fill="#95d6ee"/>
    <path id="Path_4562" data-name="Path 4562" d="M242.194,81.04a1.693,1.693,0,1,0-1.693-1.693A1.693,1.693,0,0,0,242.194,81.04Z" transform="translate(224.049 17.282)" fill="#95d6ee"/>
    <path id="Path_4563" data-name="Path 4563" d="M247.694,81.04A1.693,1.693,0,1,0,246,79.347,1.693,1.693,0,0,0,247.694,81.04Z" transform="translate(237.628 17.282)" fill="#95d6ee"/>
    <path id="Path_4564" data-name="Path 4564" d="M253.194,81.04a1.693,1.693,0,1,0-1.693-1.693A1.691,1.691,0,0,0,253.194,81.04Z" transform="translate(251.206 17.282)" fill="#95d6ee"/>
    <path id="Path_4565" data-name="Path 4565" d="M258.694,81.04A1.693,1.693,0,1,0,257,79.347,1.691,1.691,0,0,0,258.694,81.04Z" transform="translate(264.785 17.282)" fill="#95d6ee"/>
    <path id="Path_4566" data-name="Path 4566" d="M264.194,81.04a1.693,1.693,0,1,0-1.693-1.693A1.691,1.691,0,0,0,264.194,81.04Z" transform="translate(278.364 17.282)" fill="#95d6ee"/>
    <path id="Path_4567" data-name="Path 4567" d="M269.694,81.04A1.693,1.693,0,1,0,268,79.347,1.691,1.691,0,0,0,269.694,81.04Z" transform="translate(291.942 17.282)" fill="#95d6ee"/>
    <path id="Path_4568" data-name="Path 4568" d="M151.443,84.541a1.693,1.693,0,1,0-1.693-1.7A1.7,1.7,0,0,0,151.443,84.541Z" transform="translate(0 25.925)" fill="#95d6ee"/>
    <path id="Path_4569" data-name="Path 4569" d="M156.943,84.541a1.693,1.693,0,1,0-1.693-1.7A1.694,1.694,0,0,0,156.943,84.541Z" transform="translate(13.579 25.925)" fill="#95d6ee"/>
    <path id="Path_4570" data-name="Path 4570" d="M162.443,84.541a1.693,1.693,0,1,0-1.693-1.7A1.7,1.7,0,0,0,162.443,84.541Z" transform="translate(27.157 25.925)" fill="#95d6ee"/>
    <path id="Path_4571" data-name="Path 4571" d="M167.943,84.541a1.693,1.693,0,1,0-1.693-1.7A1.694,1.694,0,0,0,167.943,84.541Z" transform="translate(40.736 25.925)" fill="#95d6ee"/>
    <path id="Path_4572" data-name="Path 4572" d="M173.443,84.541a1.693,1.693,0,1,0-1.693-1.7A1.7,1.7,0,0,0,173.443,84.541Z" transform="translate(54.314 25.925)" fill="#95d6ee"/>
    <path id="Path_4573" data-name="Path 4573" d="M178.943,84.541a1.693,1.693,0,1,0-1.693-1.7A1.694,1.694,0,0,0,178.943,84.541Z" transform="translate(67.893 25.925)" fill="#95d6ee"/>
    <path id="Path_4574" data-name="Path 4574" d="M184.443,84.541a1.693,1.693,0,1,0-1.693-1.7A1.694,1.694,0,0,0,184.443,84.541Z" transform="translate(81.472 25.925)" fill="#95d6ee"/>
    <path id="Path_4575" data-name="Path 4575" d="M189.943,84.541a1.693,1.693,0,1,0-1.693-1.7A1.694,1.694,0,0,0,189.943,84.541Z" transform="translate(95.05 25.925)" fill="#95d6ee"/>
    <path id="Path_4576" data-name="Path 4576" d="M195.443,84.541a1.693,1.693,0,1,0-1.693-1.7A1.694,1.694,0,0,0,195.443,84.541Z" transform="translate(108.629 25.925)" fill="#95d6ee"/>
    <path id="Path_4577" data-name="Path 4577" d="M200.943,84.541a1.693,1.693,0,1,0-1.693-1.7A1.694,1.694,0,0,0,200.943,84.541Z" transform="translate(122.207 25.925)" fill="#95d6ee"/>
    <path id="Path_4578" data-name="Path 4578" d="M206.443,84.541a1.693,1.693,0,1,0-1.693-1.7A1.7,1.7,0,0,0,206.443,84.541Z" transform="translate(135.786 25.925)" fill="#95d6ee"/>
    <path id="Path_4579" data-name="Path 4579" d="M211.946,84.541a1.693,1.693,0,1,0-1.7-1.7A1.7,1.7,0,0,0,211.946,84.541Z" transform="translate(149.365 25.925)" fill="#95d6ee"/>
    <path id="Path_4580" data-name="Path 4580" d="M217.446,84.541a1.693,1.693,0,1,0-1.7-1.7A1.7,1.7,0,0,0,217.446,84.541Z" transform="translate(162.943 25.925)" fill="#95d6ee"/>
    <path id="Path_4581" data-name="Path 4581" d="M222.944,84.541a1.693,1.693,0,1,0-1.693-1.7A1.7,1.7,0,0,0,222.944,84.541Z" transform="translate(176.524 25.925)" fill="#95d6ee"/>
    <path id="Path_4582" data-name="Path 4582" d="M228.444,84.541a1.693,1.693,0,1,0-1.693-1.7A1.7,1.7,0,0,0,228.444,84.541Z" transform="translate(190.103 25.925)" fill="#95d6ee"/>
    <path id="Path_4583" data-name="Path 4583" d="M233.944,84.541a1.693,1.693,0,1,0-1.693-1.7A1.7,1.7,0,0,0,233.944,84.541Z" transform="translate(203.681 25.925)" fill="#95d6ee"/>
    <path id="Path_4584" data-name="Path 4584" d="M239.444,84.541a1.693,1.693,0,1,0-1.693-1.7A1.694,1.694,0,0,0,239.444,84.541Z" transform="translate(217.26 25.925)" fill="#95d6ee"/>
    <path id="Path_4585" data-name="Path 4585" d="M244.944,84.541a1.693,1.693,0,1,0-1.693-1.7A1.7,1.7,0,0,0,244.944,84.541Z" transform="translate(230.838 25.925)" fill="#95d6ee"/>
    <path id="Path_4586" data-name="Path 4586" d="M250.444,84.541a1.693,1.693,0,1,0-1.693-1.7A1.694,1.694,0,0,0,250.444,84.541Z" transform="translate(244.417 25.925)" fill="#95d6ee"/>
    <path id="Path_4587" data-name="Path 4587" d="M255.944,84.541a1.693,1.693,0,1,0-1.693-1.7A1.7,1.7,0,0,0,255.944,84.541Z" transform="translate(257.996 25.925)" fill="#95d6ee"/>
    <path id="Path_4588" data-name="Path 4588" d="M261.444,84.541a1.693,1.693,0,1,0-1.693-1.7A1.694,1.694,0,0,0,261.444,84.541Z" transform="translate(271.574 25.925)" fill="#95d6ee"/>
    <path id="Path_4589" data-name="Path 4589" d="M266.944,84.541a1.693,1.693,0,1,0-1.693-1.7A1.694,1.694,0,0,0,266.944,84.541Z" transform="translate(285.153 25.925)" fill="#95d6ee"/>
    <path id="Path_4590" data-name="Path 4590" d="M154.193,88.041a1.693,1.693,0,1,0-1.693-1.693A1.7,1.7,0,0,0,154.193,88.041Z" transform="translate(6.789 34.566)" fill="#95d6ee"/>
    <path id="Path_4591" data-name="Path 4591" d="M159.693,88.041A1.693,1.693,0,1,0,158,86.348,1.7,1.7,0,0,0,159.693,88.041Z" transform="translate(20.368 34.566)" fill="#95d6ee"/>
    <path id="Path_4592" data-name="Path 4592" d="M165.193,88.041a1.693,1.693,0,1,0-1.693-1.693A1.7,1.7,0,0,0,165.193,88.041Z" transform="translate(33.946 34.566)" fill="#95d6ee"/>
    <path id="Path_4593" data-name="Path 4593" d="M170.693,88.041A1.693,1.693,0,1,0,169,86.348,1.693,1.693,0,0,0,170.693,88.041Z" transform="translate(47.525 34.566)" fill="#95d6ee"/>
    <path id="Path_4594" data-name="Path 4594" d="M176.193,88.041a1.693,1.693,0,1,0-1.693-1.693A1.693,1.693,0,0,0,176.193,88.041Z" transform="translate(61.104 34.566)" fill="#95d6ee"/>
    <path id="Path_4595" data-name="Path 4595" d="M181.693,88.041A1.693,1.693,0,1,0,180,86.348,1.693,1.693,0,0,0,181.693,88.041Z" transform="translate(74.682 34.566)" fill="#95d6ee"/>
    <path id="Path_4596" data-name="Path 4596" d="M187.193,88.041a1.693,1.693,0,1,0-1.693-1.693A1.693,1.693,0,0,0,187.193,88.041Z" transform="translate(88.261 34.566)" fill="#95d6ee"/>
    <path id="Path_4597" data-name="Path 4597" d="M192.693,88.041A1.693,1.693,0,1,0,191,86.348,1.693,1.693,0,0,0,192.693,88.041Z" transform="translate(101.839 34.566)" fill="#95d6ee"/>
    <path id="Path_4598" data-name="Path 4598" d="M198.193,88.041a1.693,1.693,0,1,0-1.693-1.693A1.7,1.7,0,0,0,198.193,88.041Z" transform="translate(115.418 34.566)" fill="#95d6ee"/>
    <path id="Path_4599" data-name="Path 4599" d="M203.7,88.041a1.693,1.693,0,1,0-1.7-1.693A1.692,1.692,0,0,0,203.7,88.041Z" transform="translate(128.997 34.566)" fill="#95d6ee"/>
    <path id="Path_4600" data-name="Path 4600" d="M209.19,88.041a1.693,1.693,0,1,0-1.689-1.693A1.7,1.7,0,0,0,209.19,88.041Z" transform="translate(142.578 34.566)" fill="#95d6ee"/>
    <path id="Path_4601" data-name="Path 4601" d="M214.7,88.041a1.693,1.693,0,1,0-1.7-1.693A1.692,1.692,0,0,0,214.7,88.041Z" transform="translate(156.154 34.566)" fill="#95d6ee"/>
    <path id="Path_4602" data-name="Path 4602" d="M220.19,88.041a1.693,1.693,0,1,0-1.689-1.693A1.7,1.7,0,0,0,220.19,88.041Z" transform="translate(169.735 34.566)" fill="#95d6ee"/>
    <path id="Path_4603" data-name="Path 4603" d="M225.7,88.041a1.693,1.693,0,1,0-1.7-1.693A1.7,1.7,0,0,0,225.7,88.041Z" transform="translate(183.311 34.566)" fill="#95d6ee"/>
    <path id="Path_4604" data-name="Path 4604" d="M231.194,88.041a1.693,1.693,0,1,0-1.693-1.693A1.7,1.7,0,0,0,231.194,88.041Z" transform="translate(196.892 34.566)" fill="#95d6ee"/>
    <path id="Path_4605" data-name="Path 4605" d="M236.694,88.041A1.693,1.693,0,1,0,235,86.348,1.7,1.7,0,0,0,236.694,88.041Z" transform="translate(210.471 34.566)" fill="#95d6ee"/>
    <path id="Path_4606" data-name="Path 4606" d="M242.194,88.041a1.693,1.693,0,1,0-1.693-1.693A1.7,1.7,0,0,0,242.194,88.041Z" transform="translate(224.049 34.566)" fill="#95d6ee"/>
    <path id="Path_4607" data-name="Path 4607" d="M247.694,88.041A1.693,1.693,0,1,0,246,86.348,1.7,1.7,0,0,0,247.694,88.041Z" transform="translate(237.628 34.566)" fill="#95d6ee"/>
    <path id="Path_4608" data-name="Path 4608" d="M253.194,88.041a1.693,1.693,0,1,0-1.693-1.693A1.693,1.693,0,0,0,253.194,88.041Z" transform="translate(251.206 34.566)" fill="#95d6ee"/>
    <path id="Path_4609" data-name="Path 4609" d="M258.694,88.041A1.693,1.693,0,1,0,257,86.348,1.693,1.693,0,0,0,258.694,88.041Z" transform="translate(264.785 34.566)" fill="#95d6ee"/>
    <path id="Path_4610" data-name="Path 4610" d="M264.194,88.041a1.693,1.693,0,1,0-1.693-1.693A1.693,1.693,0,0,0,264.194,88.041Z" transform="translate(278.364 34.566)" fill="#95d6ee"/>
    <path id="Path_4611" data-name="Path 4611" d="M269.694,88.041A1.693,1.693,0,1,0,268,86.348,1.693,1.693,0,0,0,269.694,88.041Z" transform="translate(291.942 34.566)" fill="#95d6ee"/>
    <path id="Path_4612" data-name="Path 4612" d="M151.443,91.541a1.693,1.693,0,1,0-1.693-1.693A1.7,1.7,0,0,0,151.443,91.541Z" transform="translate(0 43.207)" fill="#95d6ee"/>
    <circle id="Ellipse_284" data-name="Ellipse 284" cx="1.693" cy="1.693" r="1.693" transform="translate(168.827 131.36)" fill="#95d6ee"/>
    <path id="Path_4613" data-name="Path 4613" d="M162.443,91.541a1.693,1.693,0,1,0-1.693-1.693A1.7,1.7,0,0,0,162.443,91.541Z" transform="translate(27.157 43.207)" fill="#95d6ee"/>
    <path id="Path_4614" data-name="Path 4614" d="M167.943,91.541a1.693,1.693,0,1,0-1.693-1.693A1.693,1.693,0,0,0,167.943,91.541Z" transform="translate(40.736 43.207)" fill="#95d6ee"/>
    <path id="Path_4615" data-name="Path 4615" d="M173.443,91.541a1.693,1.693,0,1,0-1.693-1.693A1.7,1.7,0,0,0,173.443,91.541Z" transform="translate(54.314 43.207)" fill="#95d6ee"/>
    <path id="Path_4616" data-name="Path 4616" d="M178.943,91.541a1.693,1.693,0,1,0-1.693-1.693A1.693,1.693,0,0,0,178.943,91.541Z" transform="translate(67.893 43.207)" fill="#95d6ee"/>
    <circle id="Ellipse_285" data-name="Ellipse 285" cx="1.693" cy="1.693" r="1.693" transform="translate(264.222 131.36)" fill="#95d6ee"/>
    <path id="Path_4617" data-name="Path 4617" d="M189.943,91.541a1.693,1.693,0,1,0-1.693-1.693A1.693,1.693,0,0,0,189.943,91.541Z" transform="translate(95.05 43.207)" fill="#95d6ee"/>
    <path id="Path_4618" data-name="Path 4618" d="M195.443,91.541a1.693,1.693,0,1,0-1.693-1.693A1.693,1.693,0,0,0,195.443,91.541Z" transform="translate(108.629 43.207)" fill="#95d6ee"/>
    <path id="Path_4619" data-name="Path 4619" d="M200.943,91.541a1.693,1.693,0,1,0-1.693-1.693A1.693,1.693,0,0,0,200.943,91.541Z" transform="translate(122.207 43.207)" fill="#95d6ee"/>
    <path id="Path_4620" data-name="Path 4620" d="M206.443,91.541a1.693,1.693,0,1,0-1.693-1.693A1.7,1.7,0,0,0,206.443,91.541Z" transform="translate(135.786 43.207)" fill="#95d6ee"/>
    <circle id="Ellipse_286" data-name="Ellipse 286" cx="1.693" cy="1.693" r="1.693" transform="translate(359.616 131.36)" fill="#95d6ee"/>
    <path id="Path_4621" data-name="Path 4621" d="M217.446,91.541a1.693,1.693,0,1,0-1.7-1.693A1.7,1.7,0,0,0,217.446,91.541Z" transform="translate(162.943 43.207)" fill="#95d6ee"/>
    <path id="Path_4622" data-name="Path 4622" d="M222.944,91.541a1.693,1.693,0,1,0-1.693-1.693A1.7,1.7,0,0,0,222.944,91.541Z" transform="translate(176.524 43.207)" fill="#95d6ee"/>
    <path id="Path_4623" data-name="Path 4623" d="M228.444,91.541a1.693,1.693,0,1,0-1.693-1.693A1.7,1.7,0,0,0,228.444,91.541Z" transform="translate(190.103 43.207)" fill="#95d6ee"/>
    <path id="Path_4624" data-name="Path 4624" d="M233.944,91.541a1.693,1.693,0,1,0-1.693-1.693A1.7,1.7,0,0,0,233.944,91.541Z" transform="translate(203.681 43.207)" fill="#95d6ee"/>
    <circle id="Ellipse_287" data-name="Ellipse 287" cx="1.693" cy="1.693" r="1.693" transform="translate(455.01 131.36)" fill="#95d6ee"/>
    <path id="Path_4625" data-name="Path 4625" d="M244.944,91.541a1.693,1.693,0,1,0-1.693-1.693A1.7,1.7,0,0,0,244.944,91.541Z" transform="translate(230.838 43.207)" fill="#95d6ee"/>
    <path id="Path_4626" data-name="Path 4626" d="M250.444,91.541a1.693,1.693,0,1,0-1.693-1.693A1.693,1.693,0,0,0,250.444,91.541Z" transform="translate(244.417 43.207)" fill="#95d6ee"/>
    <path id="Path_4627" data-name="Path 4627" d="M255.944,91.541a1.693,1.693,0,1,0-1.693-1.693A1.7,1.7,0,0,0,255.944,91.541Z" transform="translate(257.996 43.207)" fill="#95d6ee"/>
    <path id="Path_4628" data-name="Path 4628" d="M261.444,91.541a1.693,1.693,0,1,0-1.693-1.693A1.693,1.693,0,0,0,261.444,91.541Z" transform="translate(271.574 43.207)" fill="#95d6ee"/>
    <circle id="Ellipse_288" data-name="Ellipse 288" cx="1.693" cy="1.693" r="1.693" transform="translate(550.404 131.36)" fill="#95d6ee"/>
    <path id="Path_4629" data-name="Path 4629" d="M154.193,95.041a1.693,1.693,0,1,0-1.693-1.693A1.7,1.7,0,0,0,154.193,95.041Z" transform="translate(6.789 51.848)" fill="#95d6ee"/>
    <path id="Path_4630" data-name="Path 4630" d="M159.693,95.041A1.693,1.693,0,1,0,158,93.348,1.7,1.7,0,0,0,159.693,95.041Z" transform="translate(20.368 51.848)" fill="#95d6ee"/>
    <path id="Path_4631" data-name="Path 4631" d="M165.193,95.041a1.693,1.693,0,1,0-1.693-1.693A1.7,1.7,0,0,0,165.193,95.041Z" transform="translate(33.946 51.848)" fill="#95d6ee"/>
    <circle id="Ellipse_289" data-name="Ellipse 289" cx="1.693" cy="1.693" r="1.693" transform="translate(216.525 143.501)" fill="#95d6ee"/>
    <path id="Path_4632" data-name="Path 4632" d="M176.193,95.041a1.693,1.693,0,1,0-1.693-1.693A1.693,1.693,0,0,0,176.193,95.041Z" transform="translate(61.104 51.848)" fill="#95d6ee"/>
    <path id="Path_4633" data-name="Path 4633" d="M181.693,95.041A1.693,1.693,0,1,0,180,93.348,1.693,1.693,0,0,0,181.693,95.041Z" transform="translate(74.682 51.848)" fill="#95d6ee"/>
    <path id="Path_4634" data-name="Path 4634" d="M187.193,95.041a1.693,1.693,0,1,0-1.693-1.693A1.693,1.693,0,0,0,187.193,95.041Z" transform="translate(88.261 51.848)" fill="#95d6ee"/>
    <path id="Path_4635" data-name="Path 4635" d="M192.693,95.041A1.693,1.693,0,1,0,191,93.348,1.693,1.693,0,0,0,192.693,95.041Z" transform="translate(101.839 51.848)" fill="#95d6ee"/>
    <circle id="Ellipse_290" data-name="Ellipse 290" cx="1.693" cy="1.693" r="1.693" transform="translate(311.919 143.501)" fill="#95d6ee"/>
    <path id="Path_4636" data-name="Path 4636" d="M203.7,95.041a1.693,1.693,0,1,0-1.7-1.693A1.692,1.692,0,0,0,203.7,95.041Z" transform="translate(128.997 51.848)" fill="#95d6ee"/>
    <path id="Path_4637" data-name="Path 4637" d="M209.19,95.041a1.693,1.693,0,1,0-1.689-1.693A1.7,1.7,0,0,0,209.19,95.041Z" transform="translate(142.578 51.848)" fill="#95d6ee"/>
    <path id="Path_4638" data-name="Path 4638" d="M214.7,95.041a1.693,1.693,0,1,0-1.7-1.693A1.692,1.692,0,0,0,214.7,95.041Z" transform="translate(156.154 51.848)" fill="#95d6ee"/>
    <path id="Path_4639" data-name="Path 4639" d="M220.19,95.041a1.693,1.693,0,1,0-1.689-1.693A1.7,1.7,0,0,0,220.19,95.041Z" transform="translate(169.735 51.848)" fill="#95d6ee"/>
    <circle id="Ellipse_291" data-name="Ellipse 291" cx="1.693" cy="1.693" r="1.693" transform="translate(407.313 143.501)" fill="#95d6ee"/>
    <path id="Path_4640" data-name="Path 4640" d="M231.194,95.041a1.693,1.693,0,1,0-1.693-1.693A1.7,1.7,0,0,0,231.194,95.041Z" transform="translate(196.892 51.848)" fill="#95d6ee"/>
    <path id="Path_4641" data-name="Path 4641" d="M236.694,95.041A1.693,1.693,0,1,0,235,93.348,1.7,1.7,0,0,0,236.694,95.041Z" transform="translate(210.471 51.848)" fill="#95d6ee"/>
    <path id="Path_4642" data-name="Path 4642" d="M242.194,95.041a1.693,1.693,0,1,0-1.693-1.693A1.7,1.7,0,0,0,242.194,95.041Z" transform="translate(224.049 51.848)" fill="#95d6ee"/>
    <path id="Path_4643" data-name="Path 4643" d="M247.694,95.041A1.693,1.693,0,1,0,246,93.348,1.7,1.7,0,0,0,247.694,95.041Z" transform="translate(237.628 51.848)" fill="#95d6ee"/>
    <circle id="Ellipse_292" data-name="Ellipse 292" cx="1.693" cy="1.693" r="1.693" transform="translate(502.707 143.501)" fill="#95d6ee"/>
    <path id="Path_4644" data-name="Path 4644" d="M258.694,95.041A1.693,1.693,0,1,0,257,93.348,1.693,1.693,0,0,0,258.694,95.041Z" transform="translate(264.785 51.848)" fill="#95d6ee"/>
    <path id="Path_4645" data-name="Path 4645" d="M264.194,95.041a1.693,1.693,0,1,0-1.693-1.693A1.693,1.693,0,0,0,264.194,95.041Z" transform="translate(278.364 51.848)" fill="#95d6ee"/>
    <path id="Path_4646" data-name="Path 4646" d="M269.694,95.041A1.693,1.693,0,1,0,268,93.348,1.693,1.693,0,0,0,269.694,95.041Z" transform="translate(291.942 51.848)" fill="#95d6ee"/>
    <path id="Path_4647" data-name="Path 4647" d="M151.443,98.541a1.693,1.693,0,1,0-1.693-1.693A1.7,1.7,0,0,0,151.443,98.541Z" transform="translate(0 60.489)" fill="#95d6ee"/>
    <path id="Path_4648" data-name="Path 4648" d="M156.943,98.541a1.693,1.693,0,1,0-1.693-1.693A1.693,1.693,0,0,0,156.943,98.541Z" transform="translate(13.579 60.489)" fill="#95d6ee"/>
    <path id="Path_4649" data-name="Path 4649" d="M162.443,98.541a1.693,1.693,0,1,0-1.693-1.693A1.7,1.7,0,0,0,162.443,98.541Z" transform="translate(27.157 60.489)" fill="#95d6ee"/>
    <path id="Path_4650" data-name="Path 4650" d="M167.943,98.541a1.693,1.693,0,1,0-1.693-1.693A1.693,1.693,0,0,0,167.943,98.541Z" transform="translate(40.736 60.489)" fill="#95d6ee"/>
    <path id="Path_4651" data-name="Path 4651" d="M173.443,98.541a1.693,1.693,0,1,0-1.693-1.693A1.7,1.7,0,0,0,173.443,98.541Z" transform="translate(54.314 60.489)" fill="#95d6ee"/>
    <path id="Path_4652" data-name="Path 4652" d="M178.943,98.541a1.693,1.693,0,1,0-1.693-1.693A1.693,1.693,0,0,0,178.943,98.541Z" transform="translate(67.893 60.489)" fill="#95d6ee"/>
    <path id="Path_4653" data-name="Path 4653" d="M184.443,98.541a1.693,1.693,0,1,0-1.693-1.693A1.693,1.693,0,0,0,184.443,98.541Z" transform="translate(81.472 60.489)" fill="#95d6ee"/>
    <path id="Path_4654" data-name="Path 4654" d="M189.943,98.541a1.693,1.693,0,1,0-1.693-1.693A1.693,1.693,0,0,0,189.943,98.541Z" transform="translate(95.05 60.489)" fill="#95d6ee"/>
    <path id="Path_4655" data-name="Path 4655" d="M195.443,98.541a1.693,1.693,0,1,0-1.693-1.693A1.693,1.693,0,0,0,195.443,98.541Z" transform="translate(108.629 60.489)" fill="#95d6ee"/>
    <path id="Path_4656" data-name="Path 4656" d="M200.943,98.541a1.693,1.693,0,1,0-1.693-1.693A1.693,1.693,0,0,0,200.943,98.541Z" transform="translate(122.207 60.489)" fill="#95d6ee"/>
    <path id="Path_4657" data-name="Path 4657" d="M206.443,98.541a1.693,1.693,0,1,0-1.693-1.693A1.7,1.7,0,0,0,206.443,98.541Z" transform="translate(135.786 60.489)" fill="#95d6ee"/>
    <path id="Path_4658" data-name="Path 4658" d="M211.946,98.541a1.693,1.693,0,1,0-1.7-1.693A1.7,1.7,0,0,0,211.946,98.541Z" transform="translate(149.365 60.489)" fill="#95d6ee"/>
    <path id="Path_4659" data-name="Path 4659" d="M217.446,98.541a1.693,1.693,0,1,0-1.7-1.693A1.7,1.7,0,0,0,217.446,98.541Z" transform="translate(162.943 60.489)" fill="#95d6ee"/>
    <path id="Path_4660" data-name="Path 4660" d="M222.944,98.541a1.693,1.693,0,1,0-1.693-1.693A1.7,1.7,0,0,0,222.944,98.541Z" transform="translate(176.524 60.489)" fill="#95d6ee"/>
    <path id="Path_4661" data-name="Path 4661" d="M228.444,98.541a1.693,1.693,0,1,0-1.693-1.693A1.7,1.7,0,0,0,228.444,98.541Z" transform="translate(190.103 60.489)" fill="#95d6ee"/>
    <path id="Path_4662" data-name="Path 4662" d="M233.944,98.541a1.693,1.693,0,1,0-1.693-1.693A1.7,1.7,0,0,0,233.944,98.541Z" transform="translate(203.681 60.489)" fill="#95d6ee"/>
    <path id="Path_4663" data-name="Path 4663" d="M239.444,98.541a1.693,1.693,0,1,0-1.693-1.693A1.693,1.693,0,0,0,239.444,98.541Z" transform="translate(217.26 60.489)" fill="#95d6ee"/>
    <path id="Path_4664" data-name="Path 4664" d="M244.944,98.541a1.693,1.693,0,1,0-1.693-1.693A1.7,1.7,0,0,0,244.944,98.541Z" transform="translate(230.838 60.489)" fill="#95d6ee"/>
    <path id="Path_4665" data-name="Path 4665" d="M250.444,98.541a1.693,1.693,0,1,0-1.693-1.693A1.693,1.693,0,0,0,250.444,98.541Z" transform="translate(244.417 60.489)" fill="#95d6ee"/>
    <path id="Path_4666" data-name="Path 4666" d="M255.944,98.541a1.693,1.693,0,1,0-1.693-1.693A1.7,1.7,0,0,0,255.944,98.541Z" transform="translate(257.996 60.489)" fill="#95d6ee"/>
    <path id="Path_4667" data-name="Path 4667" d="M261.444,98.541a1.693,1.693,0,1,0-1.693-1.693A1.693,1.693,0,0,0,261.444,98.541Z" transform="translate(271.574 60.489)" fill="#95d6ee"/>
    <path id="Path_4668" data-name="Path 4668" d="M266.944,98.541a1.693,1.693,0,1,0-1.693-1.693A1.693,1.693,0,0,0,266.944,98.541Z" transform="translate(285.153 60.489)" fill="#95d6ee"/>
    <path id="Path_4669" data-name="Path 4669" d="M154.193,102.041a1.693,1.693,0,1,0-1.693-1.693A1.7,1.7,0,0,0,154.193,102.041Z" transform="translate(6.789 69.13)" fill="#95d6ee"/>
    <path id="Path_4670" data-name="Path 4670" d="M159.693,102.041A1.693,1.693,0,1,0,158,100.348,1.7,1.7,0,0,0,159.693,102.041Z" transform="translate(20.368 69.13)" fill="#95d6ee"/>
    <path id="Path_4671" data-name="Path 4671" d="M165.193,102.041a1.693,1.693,0,1,0-1.693-1.693A1.7,1.7,0,0,0,165.193,102.041Z" transform="translate(33.946 69.13)" fill="#95d6ee"/>
    <path id="Path_4672" data-name="Path 4672" d="M170.693,102.041A1.693,1.693,0,1,0,169,100.348,1.693,1.693,0,0,0,170.693,102.041Z" transform="translate(47.525 69.13)" fill="#95d6ee"/>
    <path id="Path_4673" data-name="Path 4673" d="M176.193,102.041a1.693,1.693,0,1,0-1.693-1.693A1.693,1.693,0,0,0,176.193,102.041Z" transform="translate(61.104 69.13)" fill="#95d6ee"/>
    <path id="Path_4674" data-name="Path 4674" d="M181.693,102.041A1.693,1.693,0,1,0,180,100.348,1.693,1.693,0,0,0,181.693,102.041Z" transform="translate(74.682 69.13)" fill="#95d6ee"/>
    <path id="Path_4675" data-name="Path 4675" d="M187.193,102.041a1.693,1.693,0,1,0-1.693-1.693A1.693,1.693,0,0,0,187.193,102.041Z" transform="translate(88.261 69.13)" fill="#95d6ee"/>
    <path id="Path_4676" data-name="Path 4676" d="M192.693,102.041A1.693,1.693,0,1,0,191,100.348,1.693,1.693,0,0,0,192.693,102.041Z" transform="translate(101.839 69.13)" fill="#95d6ee"/>
    <path id="Path_4677" data-name="Path 4677" d="M198.193,102.041a1.693,1.693,0,1,0-1.693-1.693A1.7,1.7,0,0,0,198.193,102.041Z" transform="translate(115.418 69.13)" fill="#95d6ee"/>
    <path id="Path_4678" data-name="Path 4678" d="M203.7,102.041a1.693,1.693,0,1,0-1.7-1.693A1.692,1.692,0,0,0,203.7,102.041Z" transform="translate(128.997 69.13)" fill="#95d6ee"/>
    <path id="Path_4679" data-name="Path 4679" d="M209.19,102.041a1.693,1.693,0,1,0-1.689-1.693A1.7,1.7,0,0,0,209.19,102.041Z" transform="translate(142.578 69.13)" fill="#95d6ee"/>
    <path id="Path_4680" data-name="Path 4680" d="M214.7,102.041a1.693,1.693,0,1,0-1.7-1.693A1.692,1.692,0,0,0,214.7,102.041Z" transform="translate(156.154 69.13)" fill="#95d6ee"/>
    <path id="Path_4681" data-name="Path 4681" d="M220.19,102.041a1.693,1.693,0,1,0-1.689-1.693A1.7,1.7,0,0,0,220.19,102.041Z" transform="translate(169.735 69.13)" fill="#95d6ee"/>
    <path id="Path_4682" data-name="Path 4682" d="M225.7,102.041a1.693,1.693,0,1,0-1.7-1.693A1.7,1.7,0,0,0,225.7,102.041Z" transform="translate(183.311 69.13)" fill="#95d6ee"/>
    <path id="Path_4683" data-name="Path 4683" d="M231.194,102.041a1.693,1.693,0,1,0-1.693-1.693A1.7,1.7,0,0,0,231.194,102.041Z" transform="translate(196.892 69.13)" fill="#95d6ee"/>
    <path id="Path_4684" data-name="Path 4684" d="M236.694,102.041A1.693,1.693,0,1,0,235,100.348,1.7,1.7,0,0,0,236.694,102.041Z" transform="translate(210.471 69.13)" fill="#95d6ee"/>
    <path id="Path_4685" data-name="Path 4685" d="M242.194,102.041a1.693,1.693,0,1,0-1.693-1.693A1.7,1.7,0,0,0,242.194,102.041Z" transform="translate(224.049 69.13)" fill="#95d6ee"/>
    <path id="Path_4686" data-name="Path 4686" d="M247.694,102.041A1.693,1.693,0,1,0,246,100.348,1.7,1.7,0,0,0,247.694,102.041Z" transform="translate(237.628 69.13)" fill="#95d6ee"/>
    <path id="Path_4687" data-name="Path 4687" d="M253.194,102.041a1.693,1.693,0,1,0-1.693-1.693A1.693,1.693,0,0,0,253.194,102.041Z" transform="translate(251.206 69.13)" fill="#95d6ee"/>
    <path id="Path_4688" data-name="Path 4688" d="M258.694,102.041A1.693,1.693,0,1,0,257,100.348,1.693,1.693,0,0,0,258.694,102.041Z" transform="translate(264.785 69.13)" fill="#95d6ee"/>
    <path id="Path_4689" data-name="Path 4689" d="M264.194,102.041a1.693,1.693,0,1,0-1.693-1.693A1.693,1.693,0,0,0,264.194,102.041Z" transform="translate(278.364 69.13)" fill="#95d6ee"/>
    <path id="Path_4690" data-name="Path 4690" d="M269.694,102.041A1.693,1.693,0,1,0,268,100.348,1.693,1.693,0,0,0,269.694,102.041Z" transform="translate(291.942 69.13)" fill="#95d6ee"/>
    <path id="Path_4691" data-name="Path 4691" d="M151.443,105.541a1.693,1.693,0,1,0-1.693-1.693A1.7,1.7,0,0,0,151.443,105.541Z" transform="translate(0 77.771)" fill="#95d6ee"/>
    <path id="Path_4692" data-name="Path 4692" d="M156.943,105.541a1.693,1.693,0,1,0-1.693-1.693A1.693,1.693,0,0,0,156.943,105.541Z" transform="translate(13.579 77.771)" fill="#95d6ee"/>
    <path id="Path_4693" data-name="Path 4693" d="M162.443,105.541a1.693,1.693,0,1,0-1.693-1.693A1.7,1.7,0,0,0,162.443,105.541Z" transform="translate(27.157 77.771)" fill="#95d6ee"/>
    <path id="Path_4694" data-name="Path 4694" d="M167.943,105.541a1.693,1.693,0,1,0-1.693-1.693A1.693,1.693,0,0,0,167.943,105.541Z" transform="translate(40.736 77.771)" fill="#95d6ee"/>
    <path id="Path_4695" data-name="Path 4695" d="M173.443,105.541a1.693,1.693,0,1,0-1.693-1.693A1.7,1.7,0,0,0,173.443,105.541Z" transform="translate(54.314 77.771)" fill="#95d6ee"/>
    <path id="Path_4696" data-name="Path 4696" d="M178.943,105.541a1.693,1.693,0,1,0-1.693-1.693A1.693,1.693,0,0,0,178.943,105.541Z" transform="translate(67.893 77.771)" fill="#95d6ee"/>
    <path id="Path_4697" data-name="Path 4697" d="M184.443,105.541a1.693,1.693,0,1,0-1.693-1.693A1.693,1.693,0,0,0,184.443,105.541Z" transform="translate(81.472 77.771)" fill="#95d6ee"/>
    <path id="Path_4698" data-name="Path 4698" d="M189.943,105.541a1.693,1.693,0,1,0-1.693-1.693A1.693,1.693,0,0,0,189.943,105.541Z" transform="translate(95.05 77.771)" fill="#95d6ee"/>
    <path id="Path_4699" data-name="Path 4699" d="M195.443,105.541a1.693,1.693,0,1,0-1.693-1.693A1.693,1.693,0,0,0,195.443,105.541Z" transform="translate(108.629 77.771)" fill="#95d6ee"/>
    <path id="Path_4700" data-name="Path 4700" d="M200.943,105.541a1.693,1.693,0,1,0-1.693-1.693A1.693,1.693,0,0,0,200.943,105.541Z" transform="translate(122.207 77.771)" fill="#95d6ee"/>
    <path id="Path_4701" data-name="Path 4701" d="M206.443,105.541a1.693,1.693,0,1,0-1.693-1.693A1.7,1.7,0,0,0,206.443,105.541Z" transform="translate(135.786 77.771)" fill="#95d6ee"/>
    <path id="Path_4702" data-name="Path 4702" d="M211.946,105.541a1.693,1.693,0,1,0-1.7-1.693A1.7,1.7,0,0,0,211.946,105.541Z" transform="translate(149.365 77.771)" fill="#95d6ee"/>
    <path id="Path_4703" data-name="Path 4703" d="M217.446,105.541a1.693,1.693,0,1,0-1.7-1.693A1.7,1.7,0,0,0,217.446,105.541Z" transform="translate(162.943 77.771)" fill="#95d6ee"/>
    <path id="Path_4704" data-name="Path 4704" d="M222.944,105.541a1.693,1.693,0,1,0-1.693-1.693A1.7,1.7,0,0,0,222.944,105.541Z" transform="translate(176.524 77.771)" fill="#95d6ee"/>
    <path id="Path_4705" data-name="Path 4705" d="M228.444,105.541a1.693,1.693,0,1,0-1.693-1.693A1.7,1.7,0,0,0,228.444,105.541Z" transform="translate(190.103 77.771)" fill="#95d6ee"/>
    <path id="Path_4706" data-name="Path 4706" d="M233.944,105.541a1.693,1.693,0,1,0-1.693-1.693A1.7,1.7,0,0,0,233.944,105.541Z" transform="translate(203.681 77.771)" fill="#95d6ee"/>
    <path id="Path_4707" data-name="Path 4707" d="M239.444,105.541a1.693,1.693,0,1,0-1.693-1.693A1.693,1.693,0,0,0,239.444,105.541Z" transform="translate(217.26 77.771)" fill="#95d6ee"/>
    <path id="Path_4708" data-name="Path 4708" d="M244.944,105.541a1.693,1.693,0,1,0-1.693-1.693A1.7,1.7,0,0,0,244.944,105.541Z" transform="translate(230.838 77.771)" fill="#95d6ee"/>
    <path id="Path_4709" data-name="Path 4709" d="M250.444,105.541a1.693,1.693,0,1,0-1.693-1.693A1.693,1.693,0,0,0,250.444,105.541Z" transform="translate(244.417 77.771)" fill="#95d6ee"/>
    <path id="Path_4710" data-name="Path 4710" d="M255.944,105.541a1.693,1.693,0,1,0-1.693-1.693A1.7,1.7,0,0,0,255.944,105.541Z" transform="translate(257.996 77.771)" fill="#95d6ee"/>
    <path id="Path_4711" data-name="Path 4711" d="M261.444,105.541a1.693,1.693,0,1,0-1.693-1.693A1.693,1.693,0,0,0,261.444,105.541Z" transform="translate(271.574 77.771)" fill="#95d6ee"/>
    <path id="Path_4712" data-name="Path 4712" d="M266.944,105.541a1.693,1.693,0,1,0-1.693-1.693A1.693,1.693,0,0,0,266.944,105.541Z" transform="translate(285.153 77.771)" fill="#95d6ee"/>
    <path id="Path_4713" data-name="Path 4713" d="M154.193,109.041a1.693,1.693,0,1,0-1.693-1.693A1.693,1.693,0,0,0,154.193,109.041Z" transform="translate(6.789 86.412)" fill="#95d6ee"/>
    <path id="Path_4714" data-name="Path 4714" d="M159.693,109.041A1.693,1.693,0,1,0,158,107.348,1.693,1.693,0,0,0,159.693,109.041Z" transform="translate(20.368 86.412)" fill="#95d6ee"/>
    <path id="Path_4715" data-name="Path 4715" d="M165.193,109.041a1.693,1.693,0,1,0-1.693-1.693A1.693,1.693,0,0,0,165.193,109.041Z" transform="translate(33.946 86.412)" fill="#95d6ee"/>
    <circle id="Ellipse_293" data-name="Ellipse 293" cx="1.693" cy="1.693" r="1.693" transform="translate(216.525 192.066)" fill="#95d6ee"/>
    <path id="Path_4716" data-name="Path 4716" d="M176.193,109.041a1.693,1.693,0,1,0-1.693-1.693A1.691,1.691,0,0,0,176.193,109.041Z" transform="translate(61.104 86.412)" fill="#95d6ee"/>
    <path id="Path_4717" data-name="Path 4717" d="M181.693,109.041A1.693,1.693,0,1,0,180,107.348,1.691,1.691,0,0,0,181.693,109.041Z" transform="translate(74.682 86.412)" fill="#95d6ee"/>
    <path id="Path_4718" data-name="Path 4718" d="M187.193,109.041a1.693,1.693,0,1,0-1.693-1.693A1.691,1.691,0,0,0,187.193,109.041Z" transform="translate(88.261 86.412)" fill="#95d6ee"/>
    <path id="Path_4719" data-name="Path 4719" d="M192.693,109.041A1.693,1.693,0,1,0,191,107.348,1.691,1.691,0,0,0,192.693,109.041Z" transform="translate(101.839 86.412)" fill="#95d6ee"/>
    <circle id="Ellipse_294" data-name="Ellipse 294" cx="1.693" cy="1.693" r="1.693" transform="translate(311.919 192.066)" fill="#95d6ee"/>
    <path id="Path_4720" data-name="Path 4720" d="M203.7,109.041a1.693,1.693,0,1,0-1.7-1.693A1.69,1.69,0,0,0,203.7,109.041Z" transform="translate(128.997 86.412)" fill="#95d6ee"/>
    <path id="Path_4721" data-name="Path 4721" d="M209.19,109.041a1.693,1.693,0,1,0-1.689-1.693A1.694,1.694,0,0,0,209.19,109.041Z" transform="translate(142.578 86.412)" fill="#95d6ee"/>
    <path id="Path_4722" data-name="Path 4722" d="M214.7,109.041a1.693,1.693,0,1,0-1.7-1.693A1.69,1.69,0,0,0,214.7,109.041Z" transform="translate(156.154 86.412)" fill="#95d6ee"/>
    <path id="Path_4723" data-name="Path 4723" d="M220.19,109.041a1.693,1.693,0,1,0-1.689-1.693A1.694,1.694,0,0,0,220.19,109.041Z" transform="translate(169.735 86.412)" fill="#95d6ee"/>
    <circle id="Ellipse_295" data-name="Ellipse 295" cx="1.693" cy="1.693" r="1.693" transform="translate(407.313 192.066)" fill="#95d6ee"/>
    <path id="Path_4724" data-name="Path 4724" d="M231.194,109.041a1.693,1.693,0,1,0-1.693-1.693A1.693,1.693,0,0,0,231.194,109.041Z" transform="translate(196.892 86.412)" fill="#95d6ee"/>
    <path id="Path_4725" data-name="Path 4725" d="M236.694,109.041A1.693,1.693,0,1,0,235,107.348,1.693,1.693,0,0,0,236.694,109.041Z" transform="translate(210.471 86.412)" fill="#95d6ee"/>
    <path id="Path_4726" data-name="Path 4726" d="M242.194,109.041a1.693,1.693,0,1,0-1.693-1.693A1.693,1.693,0,0,0,242.194,109.041Z" transform="translate(224.049 86.412)" fill="#95d6ee"/>
    <path id="Path_4727" data-name="Path 4727" d="M247.694,109.041A1.693,1.693,0,1,0,246,107.348,1.693,1.693,0,0,0,247.694,109.041Z" transform="translate(237.628 86.412)" fill="#95d6ee"/>
    <circle id="Ellipse_296" data-name="Ellipse 296" cx="1.693" cy="1.693" r="1.693" transform="translate(502.707 192.066)" fill="#95d6ee"/>
    <path id="Path_4728" data-name="Path 4728" d="M258.694,109.041A1.693,1.693,0,1,0,257,107.348,1.691,1.691,0,0,0,258.694,109.041Z" transform="translate(264.785 86.412)" fill="#95d6ee"/>
    <path id="Path_4729" data-name="Path 4729" d="M264.194,109.041a1.693,1.693,0,1,0-1.693-1.693A1.691,1.691,0,0,0,264.194,109.041Z" transform="translate(278.364 86.412)" fill="#95d6ee"/>
    <path id="Path_4730" data-name="Path 4730" d="M269.694,109.041A1.693,1.693,0,1,0,268,107.348,1.691,1.691,0,0,0,269.694,109.041Z" transform="translate(291.942 86.412)" fill="#95d6ee"/>
    <path id="Path_4731" data-name="Path 4731" d="M151.443,112.541a1.693,1.693,0,1,0-1.693-1.693A1.693,1.693,0,0,0,151.443,112.541Z" transform="translate(0 95.053)" fill="#95d6ee"/>
    <circle id="Ellipse_297" data-name="Ellipse 297" cx="1.693" cy="1.693" r="1.693" transform="translate(168.827 204.207)" fill="#95d6ee"/>
    <path id="Path_4732" data-name="Path 4732" d="M162.443,112.541a1.693,1.693,0,1,0-1.693-1.693A1.693,1.693,0,0,0,162.443,112.541Z" transform="translate(27.157 95.053)" fill="#95d6ee"/>
    <path id="Path_4733" data-name="Path 4733" d="M167.943,112.541a1.693,1.693,0,1,0-1.693-1.693A1.691,1.691,0,0,0,167.943,112.541Z" transform="translate(40.736 95.053)" fill="#95d6ee"/>
    <path id="Path_4734" data-name="Path 4734" d="M173.443,112.541a1.693,1.693,0,1,0-1.693-1.693A1.693,1.693,0,0,0,173.443,112.541Z" transform="translate(54.314 95.053)" fill="#95d6ee"/>
    <path id="Path_4735" data-name="Path 4735" d="M178.943,112.541a1.693,1.693,0,1,0-1.693-1.693A1.691,1.691,0,0,0,178.943,112.541Z" transform="translate(67.893 95.053)" fill="#95d6ee"/>
    <circle id="Ellipse_298" data-name="Ellipse 298" cx="1.693" cy="1.693" r="1.693" transform="translate(264.222 204.207)" fill="#95d6ee"/>
    <path id="Path_4736" data-name="Path 4736" d="M189.943,112.541a1.693,1.693,0,1,0-1.693-1.693A1.691,1.691,0,0,0,189.943,112.541Z" transform="translate(95.05 95.053)" fill="#95d6ee"/>
    <path id="Path_4737" data-name="Path 4737" d="M195.443,112.541a1.693,1.693,0,1,0-1.693-1.693A1.691,1.691,0,0,0,195.443,112.541Z" transform="translate(108.629 95.053)" fill="#95d6ee"/>
    <path id="Path_4738" data-name="Path 4738" d="M200.943,112.541a1.693,1.693,0,1,0-1.693-1.693A1.691,1.691,0,0,0,200.943,112.541Z" transform="translate(122.207 95.053)" fill="#95d6ee"/>
    <path id="Path_4739" data-name="Path 4739" d="M206.443,112.541a1.693,1.693,0,1,0-1.693-1.693A1.694,1.694,0,0,0,206.443,112.541Z" transform="translate(135.786 95.053)" fill="#95d6ee"/>
    <circle id="Ellipse_299" data-name="Ellipse 299" cx="1.693" cy="1.693" r="1.693" transform="translate(359.616 204.207)" fill="#95d6ee"/>
    <path id="Path_4740" data-name="Path 4740" d="M217.446,112.541a1.693,1.693,0,1,0-1.7-1.693A1.693,1.693,0,0,0,217.446,112.541Z" transform="translate(162.943 95.053)" fill="#95d6ee"/>
    <path id="Path_4741" data-name="Path 4741" d="M222.944,112.541a1.693,1.693,0,1,0-1.693-1.693A1.693,1.693,0,0,0,222.944,112.541Z" transform="translate(176.524 95.053)" fill="#95d6ee"/>
    <path id="Path_4742" data-name="Path 4742" d="M228.444,112.541a1.693,1.693,0,1,0-1.693-1.693A1.693,1.693,0,0,0,228.444,112.541Z" transform="translate(190.103 95.053)" fill="#95d6ee"/>
    <path id="Path_4743" data-name="Path 4743" d="M233.944,112.541a1.693,1.693,0,1,0-1.693-1.693A1.693,1.693,0,0,0,233.944,112.541Z" transform="translate(203.681 95.053)" fill="#95d6ee"/>
    <circle id="Ellipse_300" data-name="Ellipse 300" cx="1.693" cy="1.693" r="1.693" transform="translate(455.01 204.207)" fill="#95d6ee"/>
    <path id="Path_4744" data-name="Path 4744" d="M244.944,112.541a1.693,1.693,0,1,0-1.693-1.693A1.693,1.693,0,0,0,244.944,112.541Z" transform="translate(230.838 95.053)" fill="#95d6ee"/>
    <path id="Path_4745" data-name="Path 4745" d="M250.444,112.541a1.693,1.693,0,1,0-1.693-1.693A1.691,1.691,0,0,0,250.444,112.541Z" transform="translate(244.417 95.053)" fill="#95d6ee"/>
    <path id="Path_4746" data-name="Path 4746" d="M255.944,112.541a1.693,1.693,0,1,0-1.693-1.693A1.693,1.693,0,0,0,255.944,112.541Z" transform="translate(257.996 95.053)" fill="#95d6ee"/>
    <path id="Path_4747" data-name="Path 4747" d="M261.444,112.541a1.693,1.693,0,1,0-1.693-1.693A1.691,1.691,0,0,0,261.444,112.541Z" transform="translate(271.574 95.053)" fill="#95d6ee"/>
    <circle id="Ellipse_301" data-name="Ellipse 301" cx="1.693" cy="1.693" r="1.693" transform="translate(550.404 204.207)" fill="#95d6ee"/>
    <path id="Path_4748" data-name="Path 4748" d="M154.193,116.041a1.693,1.693,0,1,0-1.693-1.693A1.693,1.693,0,0,0,154.193,116.041Z" transform="translate(6.789 103.694)" fill="#95d6ee"/>
    <path id="Path_4749" data-name="Path 4749" d="M159.693,116.041A1.693,1.693,0,1,0,158,114.348,1.693,1.693,0,0,0,159.693,116.041Z" transform="translate(20.368 103.694)" fill="#95d6ee"/>
    <path id="Path_4750" data-name="Path 4750" d="M165.193,116.041a1.693,1.693,0,1,0-1.693-1.693A1.693,1.693,0,0,0,165.193,116.041Z" transform="translate(33.946 103.694)" fill="#95d6ee"/>
    <path id="Path_4751" data-name="Path 4751" d="M170.693,116.041A1.693,1.693,0,1,0,169,114.348,1.691,1.691,0,0,0,170.693,116.041Z" transform="translate(47.525 103.694)" fill="#95d6ee"/>
    <path id="Path_4752" data-name="Path 4752" d="M176.193,116.041a1.693,1.693,0,1,0-1.693-1.693A1.691,1.691,0,0,0,176.193,116.041Z" transform="translate(61.104 103.694)" fill="#95d6ee"/>
    <path id="Path_4753" data-name="Path 4753" d="M181.693,116.041A1.693,1.693,0,1,0,180,114.348,1.691,1.691,0,0,0,181.693,116.041Z" transform="translate(74.682 103.694)" fill="#95d6ee"/>
    <path id="Path_4754" data-name="Path 4754" d="M187.193,116.041a1.693,1.693,0,1,0-1.693-1.693A1.691,1.691,0,0,0,187.193,116.041Z" transform="translate(88.261 103.694)" fill="#95d6ee"/>
    <path id="Path_4755" data-name="Path 4755" d="M192.693,116.041A1.693,1.693,0,1,0,191,114.348,1.691,1.691,0,0,0,192.693,116.041Z" transform="translate(101.839 103.694)" fill="#95d6ee"/>
    <path id="Path_4756" data-name="Path 4756" d="M198.193,116.041a1.693,1.693,0,1,0-1.693-1.693A1.694,1.694,0,0,0,198.193,116.041Z" transform="translate(115.418 103.694)" fill="#95d6ee"/>
    <path id="Path_4757" data-name="Path 4757" d="M203.7,116.041a1.693,1.693,0,1,0-1.7-1.693A1.69,1.69,0,0,0,203.7,116.041Z" transform="translate(128.997 103.694)" fill="#95d6ee"/>
    <path id="Path_4758" data-name="Path 4758" d="M209.19,116.041a1.693,1.693,0,1,0-1.689-1.693A1.694,1.694,0,0,0,209.19,116.041Z" transform="translate(142.578 103.694)" fill="#95d6ee"/>
    <path id="Path_4759" data-name="Path 4759" d="M214.7,116.041a1.693,1.693,0,1,0-1.7-1.693A1.69,1.69,0,0,0,214.7,116.041Z" transform="translate(156.154 103.694)" fill="#95d6ee"/>
    <path id="Path_4760" data-name="Path 4760" d="M220.19,116.041a1.693,1.693,0,1,0-1.689-1.693A1.694,1.694,0,0,0,220.19,116.041Z" transform="translate(169.735 103.694)" fill="#95d6ee"/>
    <path id="Path_4761" data-name="Path 4761" d="M225.7,116.041a1.693,1.693,0,1,0-1.7-1.693A1.693,1.693,0,0,0,225.7,116.041Z" transform="translate(183.311 103.694)" fill="#95d6ee"/>
    <path id="Path_4762" data-name="Path 4762" d="M231.194,116.041a1.693,1.693,0,1,0-1.693-1.693A1.693,1.693,0,0,0,231.194,116.041Z" transform="translate(196.892 103.694)" fill="#95d6ee"/>
    <path id="Path_4763" data-name="Path 4763" d="M236.694,116.041A1.693,1.693,0,1,0,235,114.348,1.693,1.693,0,0,0,236.694,116.041Z" transform="translate(210.471 103.694)" fill="#95d6ee"/>
    <path id="Path_4764" data-name="Path 4764" d="M242.194,116.041a1.693,1.693,0,1,0-1.693-1.693A1.693,1.693,0,0,0,242.194,116.041Z" transform="translate(224.049 103.694)" fill="#95d6ee"/>
    <path id="Path_4765" data-name="Path 4765" d="M247.694,116.041A1.693,1.693,0,1,0,246,114.348,1.693,1.693,0,0,0,247.694,116.041Z" transform="translate(237.628 103.694)" fill="#95d6ee"/>
    <path id="Path_4766" data-name="Path 4766" d="M253.194,116.041a1.693,1.693,0,1,0-1.693-1.693A1.691,1.691,0,0,0,253.194,116.041Z" transform="translate(251.206 103.694)" fill="#95d6ee"/>
    <path id="Path_4767" data-name="Path 4767" d="M258.694,116.041A1.693,1.693,0,1,0,257,114.348,1.691,1.691,0,0,0,258.694,116.041Z" transform="translate(264.785 103.694)" fill="#95d6ee"/>
    <path id="Path_4768" data-name="Path 4768" d="M264.194,116.041a1.693,1.693,0,1,0-1.693-1.693A1.691,1.691,0,0,0,264.194,116.041Z" transform="translate(267.131 103.694)" fill="#95d6ee"/>
    <path id="Path_4769" data-name="Path 4769" d="M269.694,116.041A1.693,1.693,0,1,0,268,114.348,1.691,1.691,0,0,0,269.694,116.041Z" transform="translate(291.942 103.694)" fill="#95d6ee"/>
    <path id="Path_4770" data-name="Path 4770" d="M151.443,119.541a1.693,1.693,0,1,0-1.693-1.693A1.693,1.693,0,0,0,151.443,119.541Z" transform="translate(0 112.334)" fill="#95d6ee"/>
    <path id="Path_4771" data-name="Path 4771" d="M156.943,119.541a1.693,1.693,0,1,0-1.693-1.693A1.691,1.691,0,0,0,156.943,119.541Z" transform="translate(13.579 112.334)" fill="#95d6ee"/>
    <path id="Path_4772" data-name="Path 4772" d="M162.443,119.541a1.693,1.693,0,1,0-1.693-1.693A1.693,1.693,0,0,0,162.443,119.541Z" transform="translate(27.157 112.334)" fill="#95d6ee"/>
    <path id="Path_4773" data-name="Path 4773" d="M167.943,119.541a1.693,1.693,0,1,0-1.693-1.693A1.691,1.691,0,0,0,167.943,119.541Z" transform="translate(40.736 112.334)" fill="#95d6ee"/>
    <path id="Path_4774" data-name="Path 4774" d="M173.443,119.541a1.693,1.693,0,1,0-1.693-1.693A1.693,1.693,0,0,0,173.443,119.541Z" transform="translate(54.314 112.334)" fill="#95d6ee"/>
    <path id="Path_4775" data-name="Path 4775" d="M178.943,119.541a1.693,1.693,0,1,0-1.693-1.693A1.691,1.691,0,0,0,178.943,119.541Z" transform="translate(67.893 112.334)" fill="#95d6ee"/>
    <path id="Path_4776" data-name="Path 4776" d="M184.443,119.541a1.693,1.693,0,1,0-1.693-1.693A1.691,1.691,0,0,0,184.443,119.541Z" transform="translate(81.472 112.334)" fill="#95d6ee"/>
    <path id="Path_4777" data-name="Path 4777" d="M189.943,119.541a1.693,1.693,0,1,0-1.693-1.693A1.691,1.691,0,0,0,189.943,119.541Z" transform="translate(95.05 112.334)" fill="#95d6ee"/>
    <path id="Path_4778" data-name="Path 4778" d="M195.443,119.541a1.693,1.693,0,1,0-1.693-1.693A1.691,1.691,0,0,0,195.443,119.541Z" transform="translate(108.629 112.334)" fill="#95d6ee"/>
    <path id="Path_4779" data-name="Path 4779" d="M200.943,119.541a1.693,1.693,0,1,0-1.693-1.693A1.691,1.691,0,0,0,200.943,119.541Z" transform="translate(122.207 112.334)" fill="#95d6ee"/>
    <path id="Path_4780" data-name="Path 4780" d="M206.443,119.541a1.693,1.693,0,1,0-1.693-1.693A1.694,1.694,0,0,0,206.443,119.541Z" transform="translate(135.786 112.334)" fill="#95d6ee"/>
    <path id="Path_4781" data-name="Path 4781" d="M211.946,119.541a1.693,1.693,0,1,0-1.7-1.693A1.693,1.693,0,0,0,211.946,119.541Z" transform="translate(149.365 112.334)" fill="#95d6ee"/>
    <path id="Path_4782" data-name="Path 4782" d="M217.446,119.541a1.693,1.693,0,1,0-1.7-1.693A1.693,1.693,0,0,0,217.446,119.541Z" transform="translate(162.943 112.334)" fill="#95d6ee"/>
    <path id="Path_4783" data-name="Path 4783" d="M222.944,119.541a1.693,1.693,0,1,0-1.693-1.693A1.693,1.693,0,0,0,222.944,119.541Z" transform="translate(176.524 112.334)" fill="#95d6ee"/>
    <path id="Path_4784" data-name="Path 4784" d="M228.444,119.541a1.693,1.693,0,1,0-1.693-1.693A1.693,1.693,0,0,0,228.444,119.541Z" transform="translate(190.103 112.334)" fill="#95d6ee"/>
    <path id="Path_4785" data-name="Path 4785" d="M233.944,119.541a1.693,1.693,0,1,0-1.693-1.693A1.693,1.693,0,0,0,233.944,119.541Z" transform="translate(203.681 112.334)" fill="#95d6ee"/>
    <path id="Path_4786" data-name="Path 4786" d="M239.444,119.541a1.693,1.693,0,1,0-1.693-1.693A1.691,1.691,0,0,0,239.444,119.541Z" transform="translate(217.26 112.334)" fill="#95d6ee"/>
    <path id="Path_4787" data-name="Path 4787" d="M244.944,119.541a1.693,1.693,0,1,0-1.693-1.693A1.693,1.693,0,0,0,244.944,119.541Z" transform="translate(230.838 112.334)" fill="#95d6ee"/>
    <path id="Path_4788" data-name="Path 4788" d="M250.444,119.541a1.693,1.693,0,1,0-1.693-1.693A1.691,1.691,0,0,0,250.444,119.541Z" transform="translate(244.417 112.334)" fill="#95d6ee"/>
    <path id="Path_4789" data-name="Path 4789" d="M255.944,119.541a1.693,1.693,0,1,0-1.693-1.693A1.693,1.693,0,0,0,255.944,119.541Z" transform="translate(257.996 112.334)" fill="#95d6ee"/>
    <path id="Path_4790" data-name="Path 4790" d="M261.444,119.541a1.693,1.693,0,1,0-1.693-1.693A1.691,1.691,0,0,0,261.444,119.541Z" transform="translate(271.574 112.334)" fill="#95d6ee"/>
    <path id="Path_4791" data-name="Path 4791" d="M266.944,119.541a1.693,1.693,0,1,0-1.693-1.693A1.691,1.691,0,0,0,266.944,119.541Z" transform="translate(285.153 112.334)" fill="#95d6ee"/>
    <path id="Path_4792" data-name="Path 4792" d="M154.193,123.041a1.693,1.693,0,1,0-1.693-1.693A1.693,1.693,0,0,0,154.193,123.041Z" transform="translate(6.789 120.975)" fill="#95d6ee"/>
    <path id="Path_4793" data-name="Path 4793" d="M159.693,123.041A1.693,1.693,0,1,0,158,121.348,1.693,1.693,0,0,0,159.693,123.041Z" transform="translate(20.368 120.975)" fill="#95d6ee"/>
    <path id="Path_4794" data-name="Path 4794" d="M165.193,123.041a1.693,1.693,0,1,0-1.693-1.693A1.693,1.693,0,0,0,165.193,123.041Z" transform="translate(33.946 120.975)" fill="#95d6ee"/>
    <path id="Path_4795" data-name="Path 4795" d="M170.693,123.041A1.693,1.693,0,1,0,169,121.348,1.691,1.691,0,0,0,170.693,123.041Z" transform="translate(47.525 120.975)" fill="#95d6ee"/>
    <path id="Path_4796" data-name="Path 4796" d="M176.193,123.041a1.693,1.693,0,1,0-1.693-1.693A1.691,1.691,0,0,0,176.193,123.041Z" transform="translate(61.104 120.975)" fill="#95d6ee"/>
    <path id="Path_4797" data-name="Path 4797" d="M181.693,123.041A1.693,1.693,0,1,0,180,121.348,1.691,1.691,0,0,0,181.693,123.041Z" transform="translate(74.682 120.975)" fill="#95d6ee"/>
    <path id="Path_4798" data-name="Path 4798" d="M187.193,123.041a1.693,1.693,0,1,0-1.693-1.693A1.691,1.691,0,0,0,187.193,123.041Z" transform="translate(88.261 120.975)" fill="#95d6ee"/>
    <path id="Path_4799" data-name="Path 4799" d="M192.693,123.041A1.693,1.693,0,1,0,191,121.348,1.691,1.691,0,0,0,192.693,123.041Z" transform="translate(101.839 120.975)" fill="#95d6ee"/>
    <path id="Path_4800" data-name="Path 4800" d="M198.193,123.041a1.693,1.693,0,1,0-1.693-1.693A1.694,1.694,0,0,0,198.193,123.041Z" transform="translate(115.418 120.975)" fill="#95d6ee"/>
    <path id="Path_4801" data-name="Path 4801" d="M203.7,123.041a1.693,1.693,0,1,0-1.7-1.693A1.69,1.69,0,0,0,203.7,123.041Z" transform="translate(128.997 120.975)" fill="#95d6ee"/>
    <path id="Path_4802" data-name="Path 4802" d="M209.19,123.041a1.693,1.693,0,1,0-1.689-1.693A1.694,1.694,0,0,0,209.19,123.041Z" transform="translate(142.578 120.975)" fill="#95d6ee"/>
    <path id="Path_4803" data-name="Path 4803" d="M214.7,123.041a1.693,1.693,0,1,0-1.7-1.693A1.69,1.69,0,0,0,214.7,123.041Z" transform="translate(156.154 120.975)" fill="#95d6ee"/>
    <path id="Path_4804" data-name="Path 4804" d="M220.19,123.041a1.693,1.693,0,1,0-1.689-1.693A1.694,1.694,0,0,0,220.19,123.041Z" transform="translate(169.735 120.975)" fill="#95d6ee"/>
    <path id="Path_4805" data-name="Path 4805" d="M225.7,123.041a1.693,1.693,0,1,0-1.7-1.693A1.693,1.693,0,0,0,225.7,123.041Z" transform="translate(183.311 120.975)" fill="#95d6ee"/>
    <path id="Path_4806" data-name="Path 4806" d="M231.194,123.041a1.693,1.693,0,1,0-1.693-1.693A1.693,1.693,0,0,0,231.194,123.041Z" transform="translate(196.892 120.975)" fill="#95d6ee"/>
    <path id="Path_4807" data-name="Path 4807" d="M236.694,123.041A1.693,1.693,0,1,0,235,121.348,1.693,1.693,0,0,0,236.694,123.041Z" transform="translate(210.471 120.975)" fill="#95d6ee"/>
    <path id="Path_4808" data-name="Path 4808" d="M242.194,123.041a1.693,1.693,0,1,0-1.693-1.693A1.693,1.693,0,0,0,242.194,123.041Z" transform="translate(224.049 120.975)" fill="#95d6ee"/>
    <path id="Path_4809" data-name="Path 4809" d="M247.694,123.041A1.693,1.693,0,1,0,246,121.348,1.693,1.693,0,0,0,247.694,123.041Z" transform="translate(237.628 120.975)" fill="#95d6ee"/>
    <path id="Path_4810" data-name="Path 4810" d="M253.194,123.041a1.693,1.693,0,1,0-1.693-1.693A1.691,1.691,0,0,0,253.194,123.041Z" transform="translate(251.206 120.975)" fill="#95d6ee"/>
    <path id="Path_4811" data-name="Path 4811" d="M258.694,123.041A1.693,1.693,0,1,0,257,121.348,1.691,1.691,0,0,0,258.694,123.041Z" transform="translate(264.785 120.975)" fill="#95d6ee"/>
    <path id="Path_4812" data-name="Path 4812" d="M264.194,123.041a1.693,1.693,0,1,0-1.693-1.693A1.691,1.691,0,0,0,264.194,123.041Z" transform="translate(278.364 120.975)" fill="#95d6ee"/>
    <path id="Path_4813" data-name="Path 4813" d="M269.694,123.041A1.693,1.693,0,1,0,268,121.348,1.691,1.691,0,0,0,269.694,123.041Z" transform="translate(291.942 120.975)" fill="#95d6ee"/>
    <path id="Path_4814" data-name="Path 4814" d="M151.443,126.541a1.693,1.693,0,1,0-1.693-1.693A1.693,1.693,0,0,0,151.443,126.541Z" transform="translate(0 129.616)" fill="#95d6ee"/>
    <circle id="Ellipse_302" data-name="Ellipse 302" cx="1.693" cy="1.693" r="1.693" transform="translate(168.827 252.772)" fill="#95d6ee"/>
    <path id="Path_4815" data-name="Path 4815" d="M162.443,126.541a1.693,1.693,0,1,0-1.693-1.693A1.693,1.693,0,0,0,162.443,126.541Z" transform="translate(27.157 129.616)" fill="#95d6ee"/>
    <path id="Path_4816" data-name="Path 4816" d="M167.943,126.541a1.693,1.693,0,1,0-1.693-1.693A1.691,1.691,0,0,0,167.943,126.541Z" transform="translate(40.736 129.616)" fill="#95d6ee"/>
    <path id="Path_4817" data-name="Path 4817" d="M173.443,126.541a1.693,1.693,0,1,0-1.693-1.693A1.693,1.693,0,0,0,173.443,126.541Z" transform="translate(54.314 129.616)" fill="#95d6ee"/>
    <path id="Path_4818" data-name="Path 4818" d="M178.943,126.541a1.693,1.693,0,1,0-1.693-1.693A1.691,1.691,0,0,0,178.943,126.541Z" transform="translate(67.893 129.616)" fill="#95d6ee"/>
    <circle id="Ellipse_303" data-name="Ellipse 303" cx="1.693" cy="1.693" r="1.693" transform="translate(264.222 252.772)" fill="#95d6ee"/>
    <path id="Path_4819" data-name="Path 4819" d="M189.943,126.541a1.693,1.693,0,1,0-1.693-1.693A1.691,1.691,0,0,0,189.943,126.541Z" transform="translate(95.05 129.616)" fill="#95d6ee"/>
    <path id="Path_4820" data-name="Path 4820" d="M195.443,126.541a1.693,1.693,0,1,0-1.693-1.693A1.691,1.691,0,0,0,195.443,126.541Z" transform="translate(108.629 129.616)" fill="#95d6ee"/>
    <path id="Path_4821" data-name="Path 4821" d="M200.943,126.541a1.693,1.693,0,1,0-1.693-1.693A1.691,1.691,0,0,0,200.943,126.541Z" transform="translate(122.207 129.616)" fill="#95d6ee"/>
    <path id="Path_4822" data-name="Path 4822" d="M206.443,126.541a1.693,1.693,0,1,0-1.693-1.693A1.694,1.694,0,0,0,206.443,126.541Z" transform="translate(135.786 129.616)" fill="#95d6ee"/>
    <circle id="Ellipse_304" data-name="Ellipse 304" cx="1.693" cy="1.693" r="1.693" transform="translate(359.616 252.772)" fill="#95d6ee"/>
    <path id="Path_4823" data-name="Path 4823" d="M217.446,126.541a1.693,1.693,0,1,0-1.7-1.693A1.693,1.693,0,0,0,217.446,126.541Z" transform="translate(162.943 129.616)" fill="#95d6ee"/>
    <path id="Path_4824" data-name="Path 4824" d="M222.944,126.541a1.693,1.693,0,1,0-1.693-1.693A1.693,1.693,0,0,0,222.944,126.541Z" transform="translate(176.524 129.616)" fill="#95d6ee"/>
    <path id="Path_4825" data-name="Path 4825" d="M228.444,126.541a1.693,1.693,0,1,0-1.693-1.693A1.693,1.693,0,0,0,228.444,126.541Z" transform="translate(190.103 129.616)" fill="#95d6ee"/>
    <path id="Path_4826" data-name="Path 4826" d="M233.944,126.541a1.693,1.693,0,1,0-1.693-1.693A1.693,1.693,0,0,0,233.944,126.541Z" transform="translate(203.681 129.616)" fill="#95d6ee"/>
    <circle id="Ellipse_305" data-name="Ellipse 305" cx="1.693" cy="1.693" r="1.693" transform="translate(455.01 252.772)" fill="#95d6ee"/>
    <path id="Path_4827" data-name="Path 4827" d="M244.944,126.541a1.693,1.693,0,1,0-1.693-1.693A1.693,1.693,0,0,0,244.944,126.541Z" transform="translate(230.838 129.616)" fill="#95d6ee"/>
    <path id="Path_4828" data-name="Path 4828" d="M250.444,126.541a1.693,1.693,0,1,0-1.693-1.693A1.691,1.691,0,0,0,250.444,126.541Z" transform="translate(244.417 129.616)" fill="#95d6ee"/>
    <path id="Path_4829" data-name="Path 4829" d="M255.944,126.541a1.693,1.693,0,1,0-1.693-1.693A1.693,1.693,0,0,0,255.944,126.541Z" transform="translate(257.996 129.616)" fill="#95d6ee"/>
    <path id="Path_4830" data-name="Path 4830" d="M261.444,126.541a1.693,1.693,0,1,0-1.693-1.693A1.691,1.691,0,0,0,261.444,126.541Z" transform="translate(271.574 129.616)" fill="#95d6ee"/>
    <circle id="Ellipse_306" data-name="Ellipse 306" cx="1.693" cy="1.693" r="1.693" transform="translate(550.404 252.772)" fill="#95d6ee"/>
    <path id="Path_4831" data-name="Path 4831" d="M154.193,130.041a1.693,1.693,0,1,0-1.693-1.693A1.693,1.693,0,0,0,154.193,130.041Z" transform="translate(6.789 138.257)" fill="#95d6ee"/>
    <path id="Path_4832" data-name="Path 4832" d="M159.693,130.041A1.693,1.693,0,1,0,158,128.348,1.693,1.693,0,0,0,159.693,130.041Z" transform="translate(20.368 138.257)" fill="#95d6ee"/>
    <path id="Path_4833" data-name="Path 4833" d="M165.193,130.041a1.693,1.693,0,1,0-1.693-1.693A1.693,1.693,0,0,0,165.193,130.041Z" transform="translate(33.946 138.257)" fill="#95d6ee"/>
    <circle id="Ellipse_307" data-name="Ellipse 307" cx="1.693" cy="1.693" r="1.693" transform="translate(216.525 264.913)" fill="#95d6ee"/>
    <path id="Path_4834" data-name="Path 4834" d="M176.193,130.041a1.693,1.693,0,1,0-1.693-1.693A1.691,1.691,0,0,0,176.193,130.041Z" transform="translate(61.104 138.257)" fill="#95d6ee"/>
    <path id="Path_4835" data-name="Path 4835" d="M181.693,130.041A1.693,1.693,0,1,0,180,128.348,1.691,1.691,0,0,0,181.693,130.041Z" transform="translate(74.682 138.257)" fill="#95d6ee"/>
    <path id="Path_4836" data-name="Path 4836" d="M187.193,130.041a1.693,1.693,0,1,0-1.693-1.693A1.691,1.691,0,0,0,187.193,130.041Z" transform="translate(88.261 138.257)" fill="#95d6ee"/>
    <path id="Path_4837" data-name="Path 4837" d="M192.693,130.041A1.693,1.693,0,1,0,191,128.348,1.691,1.691,0,0,0,192.693,130.041Z" transform="translate(101.839 138.257)" fill="#95d6ee"/>
    <circle id="Ellipse_308" data-name="Ellipse 308" cx="1.693" cy="1.693" r="1.693" transform="translate(311.919 264.913)" fill="#95d6ee"/>
    <path id="Path_4838" data-name="Path 4838" d="M203.7,130.041a1.693,1.693,0,1,0-1.7-1.693A1.69,1.69,0,0,0,203.7,130.041Z" transform="translate(128.997 138.257)" fill="#95d6ee"/>
    <path id="Path_4839" data-name="Path 4839" d="M209.19,130.041a1.693,1.693,0,1,0-1.689-1.693A1.694,1.694,0,0,0,209.19,130.041Z" transform="translate(142.578 138.257)" fill="#95d6ee"/>
    <path id="Path_4840" data-name="Path 4840" d="M214.7,130.041a1.693,1.693,0,1,0-1.7-1.693A1.69,1.69,0,0,0,214.7,130.041Z" transform="translate(156.154 138.257)" fill="#95d6ee"/>
    <path id="Path_4841" data-name="Path 4841" d="M220.19,130.041a1.693,1.693,0,1,0-1.689-1.693A1.694,1.694,0,0,0,220.19,130.041Z" transform="translate(169.735 138.257)" fill="#95d6ee"/>
    <circle id="Ellipse_309" data-name="Ellipse 309" cx="1.693" cy="1.693" r="1.693" transform="translate(407.313 264.913)" fill="#95d6ee"/>
    <path id="Path_4842" data-name="Path 4842" d="M231.194,130.041a1.693,1.693,0,1,0-1.693-1.693A1.693,1.693,0,0,0,231.194,130.041Z" transform="translate(196.892 138.257)" fill="#95d6ee"/>
    <path id="Path_4843" data-name="Path 4843" d="M236.694,130.041A1.693,1.693,0,1,0,235,128.348,1.693,1.693,0,0,0,236.694,130.041Z" transform="translate(210.471 138.257)" fill="#95d6ee"/>
    <path id="Path_4844" data-name="Path 4844" d="M242.194,130.041a1.693,1.693,0,1,0-1.693-1.693A1.693,1.693,0,0,0,242.194,130.041Z" transform="translate(224.049 138.257)" fill="#95d6ee"/>
    <path id="Path_4845" data-name="Path 4845" d="M247.694,130.041A1.693,1.693,0,1,0,246,128.348,1.693,1.693,0,0,0,247.694,130.041Z" transform="translate(237.628 138.257)" fill="#95d6ee"/>
    <circle id="Ellipse_310" data-name="Ellipse 310" cx="1.693" cy="1.693" r="1.693" transform="translate(502.707 264.913)" fill="#95d6ee"/>
    <path id="Path_4846" data-name="Path 4846" d="M258.694,130.041A1.693,1.693,0,1,0,257,128.348,1.691,1.691,0,0,0,258.694,130.041Z" transform="translate(264.785 138.257)" fill="#95d6ee"/>
    <path id="Path_4847" data-name="Path 4847" d="M264.194,130.041a1.693,1.693,0,1,0-1.693-1.693A1.691,1.691,0,0,0,264.194,130.041Z" transform="translate(278.364 138.257)" fill="#95d6ee"/>
    <path id="Path_4848" data-name="Path 4848" d="M269.694,130.041A1.693,1.693,0,1,0,268,128.348,1.691,1.691,0,0,0,269.694,130.041Z" transform="translate(291.942 138.257)" fill="#95d6ee"/>
    <path id="Path_4849" data-name="Path 4849" d="M151.443,133.544a1.695,1.695,0,1,0-1.693-1.7A1.7,1.7,0,0,0,151.443,133.544Z" transform="translate(0 146.898)" fill="#95d6ee"/>
    <path id="Path_4850" data-name="Path 4850" d="M156.943,133.544a1.695,1.695,0,1,0-1.693-1.7A1.694,1.694,0,0,0,156.943,133.544Z" transform="translate(13.579 146.898)" fill="#95d6ee"/>
    <path id="Path_4851" data-name="Path 4851" d="M162.443,133.544a1.695,1.695,0,1,0-1.693-1.7A1.7,1.7,0,0,0,162.443,133.544Z" transform="translate(27.157 146.898)" fill="#95d6ee"/>
    <path id="Path_4852" data-name="Path 4852" d="M167.943,133.544a1.695,1.695,0,1,0-1.693-1.7A1.694,1.694,0,0,0,167.943,133.544Z" transform="translate(40.736 146.898)" fill="#95d6ee"/>
    <path id="Path_4853" data-name="Path 4853" d="M173.443,133.544a1.695,1.695,0,1,0-1.693-1.7A1.7,1.7,0,0,0,173.443,133.544Z" transform="translate(54.314 146.898)" fill="#95d6ee"/>
    <path id="Path_4854" data-name="Path 4854" d="M178.943,133.544a1.695,1.695,0,1,0-1.693-1.7A1.694,1.694,0,0,0,178.943,133.544Z" transform="translate(67.893 146.898)" fill="#95d6ee"/>
    <path id="Path_4855" data-name="Path 4855" d="M184.443,133.544a1.695,1.695,0,1,0-1.693-1.7A1.694,1.694,0,0,0,184.443,133.544Z" transform="translate(81.472 146.898)" fill="#95d6ee"/>
    <path id="Path_4856" data-name="Path 4856" d="M189.943,133.544a1.695,1.695,0,1,0-1.693-1.7A1.694,1.694,0,0,0,189.943,133.544Z" transform="translate(95.05 146.898)" fill="#95d6ee"/>
    <path id="Path_4857" data-name="Path 4857" d="M195.443,133.544a1.695,1.695,0,1,0-1.693-1.7A1.694,1.694,0,0,0,195.443,133.544Z" transform="translate(108.629 146.898)" fill="#95d6ee"/>
    <path id="Path_4858" data-name="Path 4858" d="M200.943,133.544a1.695,1.695,0,1,0-1.693-1.7A1.694,1.694,0,0,0,200.943,133.544Z" transform="translate(122.207 146.898)" fill="#95d6ee"/>
    <path id="Path_4859" data-name="Path 4859" d="M206.443,133.544a1.695,1.695,0,1,0-1.693-1.7A1.7,1.7,0,0,0,206.443,133.544Z" transform="translate(135.786 146.898)" fill="#95d6ee"/>
    <path id="Path_4860" data-name="Path 4860" d="M211.946,133.544a1.695,1.695,0,1,0-1.7-1.7A1.7,1.7,0,0,0,211.946,133.544Z" transform="translate(149.365 146.898)" fill="#95d6ee"/>
    <path id="Path_4861" data-name="Path 4861" d="M217.446,133.544a1.695,1.695,0,1,0-1.7-1.7A1.7,1.7,0,0,0,217.446,133.544Z" transform="translate(162.943 146.898)" fill="#95d6ee"/>
    <path id="Path_4862" data-name="Path 4862" d="M222.944,133.544a1.695,1.695,0,1,0-1.693-1.7A1.7,1.7,0,0,0,222.944,133.544Z" transform="translate(176.524 146.898)" fill="#95d6ee"/>
    <path id="Path_4863" data-name="Path 4863" d="M228.444,133.544a1.695,1.695,0,1,0-1.693-1.7A1.7,1.7,0,0,0,228.444,133.544Z" transform="translate(190.103 146.898)" fill="#95d6ee"/>
    <path id="Path_4864" data-name="Path 4864" d="M233.944,133.544a1.695,1.695,0,1,0-1.693-1.7A1.7,1.7,0,0,0,233.944,133.544Z" transform="translate(203.681 146.898)" fill="#95d6ee"/>
    <path id="Path_4865" data-name="Path 4865" d="M239.444,133.544a1.695,1.695,0,1,0-1.693-1.7A1.694,1.694,0,0,0,239.444,133.544Z" transform="translate(217.26 146.898)" fill="#95d6ee"/>
    <path id="Path_4866" data-name="Path 4866" d="M244.944,133.544a1.695,1.695,0,1,0-1.693-1.7A1.7,1.7,0,0,0,244.944,133.544Z" transform="translate(230.838 146.898)" fill="#95d6ee"/>
    <path id="Path_4867" data-name="Path 4867" d="M250.444,133.544a1.695,1.695,0,1,0-1.693-1.7A1.694,1.694,0,0,0,250.444,133.544Z" transform="translate(244.417 146.898)" fill="#95d6ee"/>
    <path id="Path_4868" data-name="Path 4868" d="M255.944,133.544a1.695,1.695,0,1,0-1.693-1.7A1.7,1.7,0,0,0,255.944,133.544Z" transform="translate(257.996 146.898)" fill="#95d6ee"/>
    <path id="Path_4869" data-name="Path 4869" d="M261.444,133.544a1.695,1.695,0,1,0-1.693-1.7A1.694,1.694,0,0,0,261.444,133.544Z" transform="translate(271.574 146.898)" fill="#95d6ee"/>
    <path id="Path_4870" data-name="Path 4870" d="M266.944,133.544a1.695,1.695,0,1,0-1.693-1.7A1.694,1.694,0,0,0,266.944,133.544Z" transform="translate(285.153 146.898)" fill="#95d6ee"/>
    <path id="Path_4871" data-name="Path 4871" d="M154.193,137.042a1.693,1.693,0,1,0-1.693-1.7A1.7,1.7,0,0,0,154.193,137.042Z" transform="translate(6.789 155.542)" fill="#95d6ee"/>
    <path id="Path_4872" data-name="Path 4872" d="M159.693,137.042a1.693,1.693,0,1,0-1.693-1.7A1.7,1.7,0,0,0,159.693,137.042Z" transform="translate(20.368 155.542)" fill="#95d6ee"/>
    <path id="Path_4873" data-name="Path 4873" d="M165.193,137.042a1.693,1.693,0,1,0-1.693-1.7A1.7,1.7,0,0,0,165.193,137.042Z" transform="translate(33.946 155.542)" fill="#95d6ee"/>
    <path id="Path_4874" data-name="Path 4874" d="M170.693,137.042a1.693,1.693,0,1,0-1.693-1.7A1.694,1.694,0,0,0,170.693,137.042Z" transform="translate(47.525 155.542)" fill="#95d6ee"/>
    <path id="Path_4875" data-name="Path 4875" d="M176.193,137.042a1.693,1.693,0,1,0-1.693-1.7A1.694,1.694,0,0,0,176.193,137.042Z" transform="translate(61.104 155.542)" fill="#95d6ee"/>
    <path id="Path_4876" data-name="Path 4876" d="M181.693,137.042a1.693,1.693,0,1,0-1.693-1.7A1.694,1.694,0,0,0,181.693,137.042Z" transform="translate(74.682 155.542)" fill="#95d6ee"/>
    <path id="Path_4877" data-name="Path 4877" d="M187.193,137.042a1.693,1.693,0,1,0-1.693-1.7A1.694,1.694,0,0,0,187.193,137.042Z" transform="translate(88.261 155.542)" fill="#95d6ee"/>
    <path id="Path_4878" data-name="Path 4878" d="M192.693,137.042a1.693,1.693,0,1,0-1.693-1.7A1.694,1.694,0,0,0,192.693,137.042Z" transform="translate(101.839 155.542)" fill="#95d6ee"/>
    <path id="Path_4879" data-name="Path 4879" d="M198.193,137.042a1.693,1.693,0,1,0-1.693-1.7A1.7,1.7,0,0,0,198.193,137.042Z" transform="translate(115.418 155.542)" fill="#95d6ee"/>
    <path id="Path_4880" data-name="Path 4880" d="M203.7,137.042a1.693,1.693,0,1,0-1.7-1.7A1.693,1.693,0,0,0,203.7,137.042Z" transform="translate(128.997 155.542)" fill="#95d6ee"/>
    <path id="Path_4881" data-name="Path 4881" d="M209.19,137.042a1.693,1.693,0,1,0-1.689-1.7A1.7,1.7,0,0,0,209.19,137.042Z" transform="translate(142.578 155.542)" fill="#95d6ee"/>
    <path id="Path_4882" data-name="Path 4882" d="M214.7,137.042a1.693,1.693,0,1,0-1.7-1.7A1.693,1.693,0,0,0,214.7,137.042Z" transform="translate(156.154 155.542)" fill="#95d6ee"/>
    <path id="Path_4883" data-name="Path 4883" d="M220.19,137.042a1.693,1.693,0,1,0-1.689-1.7A1.7,1.7,0,0,0,220.19,137.042Z" transform="translate(169.735 155.542)" fill="#95d6ee"/>
    <path id="Path_4884" data-name="Path 4884" d="M225.7,137.042a1.693,1.693,0,1,0-1.7-1.7A1.7,1.7,0,0,0,225.7,137.042Z" transform="translate(183.311 155.542)" fill="#95d6ee"/>
    <path id="Path_4885" data-name="Path 4885" d="M231.194,137.042a1.693,1.693,0,1,0-1.693-1.7A1.7,1.7,0,0,0,231.194,137.042Z" transform="translate(196.892 155.542)" fill="#95d6ee"/>
    <path id="Path_4886" data-name="Path 4886" d="M236.694,137.042a1.693,1.693,0,1,0-1.693-1.7A1.7,1.7,0,0,0,236.694,137.042Z" transform="translate(210.471 155.542)" fill="#95d6ee"/>
    <path id="Path_4887" data-name="Path 4887" d="M242.194,137.042a1.693,1.693,0,1,0-1.693-1.7A1.7,1.7,0,0,0,242.194,137.042Z" transform="translate(224.049 155.542)" fill="#95d6ee"/>
    <path id="Path_4888" data-name="Path 4888" d="M247.694,137.042a1.693,1.693,0,1,0-1.693-1.7A1.7,1.7,0,0,0,247.694,137.042Z" transform="translate(237.628 155.542)" fill="#95d6ee"/>
    <path id="Path_4889" data-name="Path 4889" d="M253.194,137.042a1.693,1.693,0,1,0-1.693-1.7A1.694,1.694,0,0,0,253.194,137.042Z" transform="translate(251.206 155.542)" fill="#95d6ee"/>
    <path id="Path_4890" data-name="Path 4890" d="M258.694,137.042a1.693,1.693,0,1,0-1.693-1.7A1.694,1.694,0,0,0,258.694,137.042Z" transform="translate(264.785 155.542)" fill="#95d6ee"/>
    <path id="Path_4891" data-name="Path 4891" d="M264.194,137.042a1.693,1.693,0,1,0-1.693-1.7A1.694,1.694,0,0,0,264.194,137.042Z" transform="translate(278.364 155.542)" fill="#95d6ee"/>
    <path id="Path_4892" data-name="Path 4892" d="M269.694,137.042a1.693,1.693,0,1,0-1.693-1.7A1.694,1.694,0,0,0,269.694,137.042Z" transform="translate(291.942 155.542)" fill="#95d6ee"/>
    <path id="Path_4893" data-name="Path 4893" d="M151.443,140.542a1.693,1.693,0,1,0-1.693-1.693A1.7,1.7,0,0,0,151.443,140.542Z" transform="translate(0 164.182)" fill="#95d6ee"/>
    <path id="Path_4894" data-name="Path 4894" d="M156.943,140.542a1.693,1.693,0,1,0-1.693-1.693A1.693,1.693,0,0,0,156.943,140.542Z" transform="translate(13.579 164.182)" fill="#95d6ee"/>
    <path id="Path_4895" data-name="Path 4895" d="M162.443,140.542a1.693,1.693,0,1,0-1.693-1.693A1.7,1.7,0,0,0,162.443,140.542Z" transform="translate(27.157 164.182)" fill="#95d6ee"/>
    <path id="Path_4896" data-name="Path 4896" d="M167.943,140.542a1.693,1.693,0,1,0-1.693-1.693A1.693,1.693,0,0,0,167.943,140.542Z" transform="translate(40.736 164.182)" fill="#95d6ee"/>
    <path id="Path_4897" data-name="Path 4897" d="M173.443,140.542a1.693,1.693,0,1,0-1.693-1.693A1.7,1.7,0,0,0,173.443,140.542Z" transform="translate(54.314 164.182)" fill="#95d6ee"/>
    <path id="Path_4898" data-name="Path 4898" d="M178.943,140.542a1.693,1.693,0,1,0-1.693-1.693A1.693,1.693,0,0,0,178.943,140.542Z" transform="translate(67.893 164.182)" fill="#95d6ee"/>
    <path id="Path_4899" data-name="Path 4899" d="M184.443,140.542a1.693,1.693,0,1,0-1.693-1.693A1.693,1.693,0,0,0,184.443,140.542Z" transform="translate(81.472 164.182)" fill="#95d6ee"/>
    <path id="Path_4900" data-name="Path 4900" d="M189.943,140.542a1.693,1.693,0,1,0-1.693-1.693A1.693,1.693,0,0,0,189.943,140.542Z" transform="translate(95.05 164.182)" fill="#95d6ee"/>
    <path id="Path_4901" data-name="Path 4901" d="M195.443,140.542a1.693,1.693,0,1,0-1.693-1.693A1.693,1.693,0,0,0,195.443,140.542Z" transform="translate(108.629 164.182)" fill="#95d6ee"/>
    <path id="Path_4902" data-name="Path 4902" d="M200.943,140.542a1.693,1.693,0,1,0-1.693-1.693A1.693,1.693,0,0,0,200.943,140.542Z" transform="translate(122.207 164.182)" fill="#95d6ee"/>
    <path id="Path_4903" data-name="Path 4903" d="M206.443,140.542a1.693,1.693,0,1,0-1.693-1.693A1.7,1.7,0,0,0,206.443,140.542Z" transform="translate(135.786 164.182)" fill="#95d6ee"/>
    <path id="Path_4904" data-name="Path 4904" d="M211.946,140.542a1.693,1.693,0,1,0-1.7-1.693A1.7,1.7,0,0,0,211.946,140.542Z" transform="translate(149.365 164.182)" fill="#95d6ee"/>
    <path id="Path_4905" data-name="Path 4905" d="M217.446,140.542a1.693,1.693,0,1,0-1.7-1.693A1.7,1.7,0,0,0,217.446,140.542Z" transform="translate(162.943 164.182)" fill="#95d6ee"/>
    <path id="Path_4906" data-name="Path 4906" d="M222.944,140.542a1.693,1.693,0,1,0-1.693-1.693A1.7,1.7,0,0,0,222.944,140.542Z" transform="translate(176.524 164.182)" fill="#95d6ee"/>
    <path id="Path_4907" data-name="Path 4907" d="M228.444,140.542a1.693,1.693,0,1,0-1.693-1.693A1.7,1.7,0,0,0,228.444,140.542Z" transform="translate(190.103 164.182)" fill="#95d6ee"/>
    <path id="Path_4908" data-name="Path 4908" d="M233.944,140.542a1.693,1.693,0,1,0-1.693-1.693A1.7,1.7,0,0,0,233.944,140.542Z" transform="translate(203.681 164.182)" fill="#95d6ee"/>
    <path id="Path_4909" data-name="Path 4909" d="M239.444,140.542a1.693,1.693,0,1,0-1.693-1.693A1.693,1.693,0,0,0,239.444,140.542Z" transform="translate(217.26 164.182)" fill="#95d6ee"/>
    <path id="Path_4910" data-name="Path 4910" d="M244.944,140.542a1.693,1.693,0,1,0-1.693-1.693A1.7,1.7,0,0,0,244.944,140.542Z" transform="translate(230.838 164.182)" fill="#95d6ee"/>
    <path id="Path_4911" data-name="Path 4911" d="M250.444,140.542a1.693,1.693,0,1,0-1.693-1.693A1.693,1.693,0,0,0,250.444,140.542Z" transform="translate(244.417 164.182)" fill="#95d6ee"/>
    <path id="Path_4912" data-name="Path 4912" d="M255.944,140.542a1.693,1.693,0,1,0-1.693-1.693A1.7,1.7,0,0,0,255.944,140.542Z" transform="translate(257.996 164.182)" fill="#95d6ee"/>
    <path id="Path_4913" data-name="Path 4913" d="M261.444,140.542a1.693,1.693,0,1,0-1.693-1.693A1.693,1.693,0,0,0,261.444,140.542Z" transform="translate(271.574 164.182)" fill="#95d6ee"/>
    <path id="Path_4914" data-name="Path 4914" d="M266.944,140.542a1.693,1.693,0,1,0-1.693-1.693A1.693,1.693,0,0,0,266.944,140.542Z" transform="translate(285.153 164.182)" fill="#95d6ee"/>
    <path id="Path_4915" data-name="Path 4915" d="M154.193,144.042a1.693,1.693,0,1,0-1.693-1.693A1.7,1.7,0,0,0,154.193,144.042Z" transform="translate(6.789 172.823)" fill="#95d6ee"/>
    <path id="Path_4916" data-name="Path 4916" d="M159.693,144.042A1.693,1.693,0,1,0,158,142.349,1.7,1.7,0,0,0,159.693,144.042Z" transform="translate(20.368 172.823)" fill="#95d6ee"/>
    <path id="Path_4917" data-name="Path 4917" d="M165.193,144.042a1.693,1.693,0,1,0-1.693-1.693A1.7,1.7,0,0,0,165.193,144.042Z" transform="translate(33.946 172.823)" fill="#95d6ee"/>
    <circle id="Ellipse_311" data-name="Ellipse 311" cx="1.693" cy="1.693" r="1.693" transform="translate(216.525 313.478)" fill="#95d6ee"/>
    <path id="Path_4918" data-name="Path 4918" d="M176.193,144.042a1.693,1.693,0,1,0-1.693-1.693A1.693,1.693,0,0,0,176.193,144.042Z" transform="translate(61.104 172.823)" fill="#95d6ee"/>
    <path id="Path_4919" data-name="Path 4919" d="M181.693,144.042A1.693,1.693,0,1,0,180,142.349,1.693,1.693,0,0,0,181.693,144.042Z" transform="translate(74.682 172.823)" fill="#95d6ee"/>
    <path id="Path_4920" data-name="Path 4920" d="M187.193,144.042a1.693,1.693,0,1,0-1.693-1.693A1.693,1.693,0,0,0,187.193,144.042Z" transform="translate(88.261 172.823)" fill="#95d6ee"/>
    <path id="Path_4921" data-name="Path 4921" d="M192.693,144.042A1.693,1.693,0,1,0,191,142.349,1.693,1.693,0,0,0,192.693,144.042Z" transform="translate(101.839 172.823)" fill="#95d6ee"/>
    <circle id="Ellipse_312" data-name="Ellipse 312" cx="1.693" cy="1.693" r="1.693" transform="translate(311.919 313.478)" fill="#95d6ee"/>
    <path id="Path_4922" data-name="Path 4922" d="M203.7,144.042a1.693,1.693,0,1,0-1.7-1.693A1.692,1.692,0,0,0,203.7,144.042Z" transform="translate(128.997 172.823)" fill="#95d6ee"/>
    <path id="Path_4923" data-name="Path 4923" d="M209.19,144.042a1.693,1.693,0,1,0-1.689-1.693A1.7,1.7,0,0,0,209.19,144.042Z" transform="translate(142.578 172.823)" fill="#95d6ee"/>
    <path id="Path_4924" data-name="Path 4924" d="M214.7,144.042a1.693,1.693,0,1,0-1.7-1.693A1.692,1.692,0,0,0,214.7,144.042Z" transform="translate(156.154 172.823)" fill="#95d6ee"/>
    <path id="Path_4925" data-name="Path 4925" d="M220.19,144.042a1.693,1.693,0,1,0-1.689-1.693A1.7,1.7,0,0,0,220.19,144.042Z" transform="translate(169.735 172.823)" fill="#95d6ee"/>
    <circle id="Ellipse_313" data-name="Ellipse 313" cx="1.693" cy="1.693" r="1.693" transform="translate(407.313 313.478)" fill="#95d6ee"/>
    <path id="Path_4926" data-name="Path 4926" d="M231.194,144.042a1.693,1.693,0,1,0-1.693-1.693A1.7,1.7,0,0,0,231.194,144.042Z" transform="translate(196.892 172.823)" fill="#95d6ee"/>
    <path id="Path_4927" data-name="Path 4927" d="M236.694,144.042A1.693,1.693,0,1,0,235,142.349,1.7,1.7,0,0,0,236.694,144.042Z" transform="translate(210.471 172.823)" fill="#95d6ee"/>
    <path id="Path_4928" data-name="Path 4928" d="M242.194,144.042a1.693,1.693,0,1,0-1.693-1.693A1.7,1.7,0,0,0,242.194,144.042Z" transform="translate(224.049 172.823)" fill="#95d6ee"/>
    <path id="Path_4929" data-name="Path 4929" d="M247.694,144.042A1.693,1.693,0,1,0,246,142.349,1.7,1.7,0,0,0,247.694,144.042Z" transform="translate(237.628 172.823)" fill="#95d6ee"/>
    <circle id="Ellipse_314" data-name="Ellipse 314" cx="1.693" cy="1.693" r="1.693" transform="translate(502.707 313.478)" fill="#95d6ee"/>
    <path id="Path_4930" data-name="Path 4930" d="M258.694,144.042A1.693,1.693,0,1,0,257,142.349,1.693,1.693,0,0,0,258.694,144.042Z" transform="translate(264.785 172.823)" fill="#95d6ee"/>
    <path id="Path_4931" data-name="Path 4931" d="M264.194,144.042a1.693,1.693,0,1,0-1.693-1.693A1.693,1.693,0,0,0,264.194,144.042Z" transform="translate(278.364 172.823)" fill="#95d6ee"/>
    <path id="Path_4932" data-name="Path 4932" d="M269.694,144.042A1.693,1.693,0,1,0,268,142.349,1.693,1.693,0,0,0,269.694,144.042Z" transform="translate(291.942 172.823)" fill="#95d6ee"/>
    <path id="Path_4933" data-name="Path 4933" d="M151.443,147.542a1.693,1.693,0,1,0-1.693-1.693A1.7,1.7,0,0,0,151.443,147.542Z" transform="translate(0 181.464)" fill="#95d6ee"/>
    <circle id="Ellipse_315" data-name="Ellipse 315" cx="1.693" cy="1.693" r="1.693" transform="translate(168.827 325.619)" fill="#95d6ee"/>
    <path id="Path_4934" data-name="Path 4934" d="M162.443,147.542a1.693,1.693,0,1,0-1.693-1.693A1.7,1.7,0,0,0,162.443,147.542Z" transform="translate(27.157 181.464)" fill="#95d6ee"/>
    <path id="Path_4935" data-name="Path 4935" d="M167.943,147.542a1.693,1.693,0,1,0-1.693-1.693A1.693,1.693,0,0,0,167.943,147.542Z" transform="translate(40.736 181.464)" fill="#95d6ee"/>
    <path id="Path_4936" data-name="Path 4936" d="M173.443,147.542a1.693,1.693,0,1,0-1.693-1.693A1.7,1.7,0,0,0,173.443,147.542Z" transform="translate(54.314 181.464)" fill="#95d6ee"/>
    <path id="Path_4937" data-name="Path 4937" d="M178.943,147.542a1.693,1.693,0,1,0-1.693-1.693A1.693,1.693,0,0,0,178.943,147.542Z" transform="translate(67.893 181.464)" fill="#95d6ee"/>
    <circle id="Ellipse_316" data-name="Ellipse 316" cx="1.693" cy="1.693" r="1.693" transform="translate(264.222 325.619)" fill="#95d6ee"/>
    <path id="Path_4938" data-name="Path 4938" d="M189.943,147.542a1.693,1.693,0,1,0-1.693-1.693A1.693,1.693,0,0,0,189.943,147.542Z" transform="translate(95.05 181.464)" fill="#95d6ee"/>
    <path id="Path_4939" data-name="Path 4939" d="M195.443,147.542a1.693,1.693,0,1,0-1.693-1.693A1.693,1.693,0,0,0,195.443,147.542Z" transform="translate(108.629 181.464)" fill="#95d6ee"/>
    <path id="Path_4940" data-name="Path 4940" d="M200.943,147.542a1.693,1.693,0,1,0-1.693-1.693A1.693,1.693,0,0,0,200.943,147.542Z" transform="translate(122.207 181.464)" fill="#95d6ee"/>
    <path id="Path_4941" data-name="Path 4941" d="M206.443,147.542a1.693,1.693,0,1,0-1.693-1.693A1.7,1.7,0,0,0,206.443,147.542Z" transform="translate(135.786 181.464)" fill="#95d6ee"/>
    <circle id="Ellipse_317" data-name="Ellipse 317" cx="1.693" cy="1.693" r="1.693" transform="translate(359.616 325.619)" fill="#95d6ee"/>
    <path id="Path_4942" data-name="Path 4942" d="M217.446,147.542a1.693,1.693,0,1,0-1.7-1.693A1.7,1.7,0,0,0,217.446,147.542Z" transform="translate(162.943 181.464)" fill="#95d6ee"/>
    <path id="Path_4943" data-name="Path 4943" d="M222.944,147.542a1.693,1.693,0,1,0-1.693-1.693A1.7,1.7,0,0,0,222.944,147.542Z" transform="translate(176.524 181.464)" fill="#95d6ee"/>
    <path id="Path_4944" data-name="Path 4944" d="M228.444,147.542a1.693,1.693,0,1,0-1.693-1.693A1.7,1.7,0,0,0,228.444,147.542Z" transform="translate(190.103 181.464)" fill="#95d6ee"/>
    <path id="Path_4945" data-name="Path 4945" d="M233.944,147.542a1.693,1.693,0,1,0-1.693-1.693A1.7,1.7,0,0,0,233.944,147.542Z" transform="translate(203.681 181.464)" fill="#95d6ee"/>
    <circle id="Ellipse_318" data-name="Ellipse 318" cx="1.693" cy="1.693" r="1.693" transform="translate(455.01 325.619)" fill="#95d6ee"/>
    <path id="Path_4946" data-name="Path 4946" d="M244.944,147.542a1.693,1.693,0,1,0-1.693-1.693A1.7,1.7,0,0,0,244.944,147.542Z" transform="translate(230.838 181.464)" fill="#95d6ee"/>
    <path id="Path_4947" data-name="Path 4947" d="M250.444,147.542a1.693,1.693,0,1,0-1.693-1.693A1.693,1.693,0,0,0,250.444,147.542Z" transform="translate(244.417 181.464)" fill="#95d6ee"/>
    <path id="Path_4948" data-name="Path 4948" d="M255.944,147.542a1.693,1.693,0,1,0-1.693-1.693A1.7,1.7,0,0,0,255.944,147.542Z" transform="translate(257.996 181.464)" fill="#95d6ee"/>
    <path id="Path_4949" data-name="Path 4949" d="M261.444,147.542a1.693,1.693,0,1,0-1.693-1.693A1.693,1.693,0,0,0,261.444,147.542Z" transform="translate(271.574 181.464)" fill="#95d6ee"/>
    <circle id="Ellipse_319" data-name="Ellipse 319" cx="1.693" cy="1.693" r="1.693" transform="translate(550.404 325.619)" fill="#95d6ee"/>
  </g>
</svg>
